# Blender v3.0.0 OBJ File: ''
# www.blender.org
mtllib tree.mtl
o Circle
v 0.000000 0.000000 0.000000
v 0.000000 0.000000 -1.000000
v -0.866025 0.000000 -0.500000
v -0.866025 0.000000 0.500000
v 0.000000 0.000000 1.000000
v 0.866025 0.000000 0.500000
v 0.866025 0.000000 -0.500000
v -0.866025 5.896883 -0.500000
v 0.000000 5.896883 -1.000000
v 0.000000 5.896883 0.000000
v -0.866025 5.896883 0.500000
v 0.000000 5.896883 1.000000
v 0.866025 5.896883 0.500000
v 0.866025 5.896883 -0.500000
v 0.000000 3.776723 -2.451302
v 1.225651 3.776723 -2.122889
v 2.122890 3.776723 -1.225651
v 2.451302 3.776723 0.000000
v 2.122889 3.776723 1.225651
v 1.225651 3.776723 2.122889
v -0.000000 3.776723 2.451302
v -1.225651 3.776723 2.122889
v -2.122890 3.776723 1.225651
v -2.451302 3.776723 -0.000000
v -2.122890 3.776723 -1.225651
v -1.225651 3.776723 -2.122889
v 0.000000 8.679326 -0.000000
vt 0.500000 0.500000
vt 0.066987 0.750000
vt 0.500000 1.000000
vt 0.066987 0.250000
vt 0.500000 0.000000
vt 0.933013 0.250000
vt 0.933013 0.750000
vt 0.500000 0.500000
vt 0.500000 1.000000
vt 0.066987 0.750000
vt 0.066987 0.250000
vt 0.500000 0.000000
vt 0.933013 0.250000
vt 0.933013 0.750000
vt 0.250000 0.490000
vt 0.250000 0.250000
vt 0.370000 0.457846
vt 0.457846 0.370000
vt 0.490000 0.250000
vt 0.457846 0.130000
vt 0.370000 0.042154
vt 0.250000 0.010000
vt 0.130000 0.042154
vt 0.042154 0.130000
vt 0.010000 0.250000
vt 0.042154 0.370000
vt 0.750000 0.490000
vt 0.870000 0.457846
vt 0.957846 0.370000
vt 0.990000 0.250000
vt 0.957846 0.130000
vt 0.870000 0.042154
vt 0.750000 0.010000
vt 0.630000 0.042154
vt 0.542154 0.130000
vt 0.510000 0.250000
vt 0.542154 0.370000
vt 0.630000 0.457846
vt 0.130000 0.457846
vn 0.0000 -1.0000 0.0000
vn 0.0000 1.0000 0.0000
vn 0.5000 0.0000 -0.8660
vn -0.5000 0.0000 -0.8660
vn 1.0000 0.0000 0.0000
vn 0.5000 0.0000 0.8660
vn -0.5000 0.0000 0.8660
vn -1.0000 0.0000 0.0000
vn 0.2331 0.4349 -0.8698
vn 0.6367 0.4349 -0.6367
vn 0.8698 0.4349 -0.2331
vn 0.8698 0.4349 0.2331
vn 0.6367 0.4349 0.6367
vn 0.2331 0.4349 0.8698
vn -0.2331 0.4349 0.8698
vn -0.6367 0.4349 0.6367
vn -0.8698 0.4349 0.2331
vn -0.8698 0.4349 -0.2331
vn -0.6367 0.4349 -0.6367
vn -0.2331 0.4349 -0.8698
usemtl None
s off
f 1/1/1 3/2/1 2/3/1
f 1/1/1 4/4/1 3/2/1
f 1/1/1 5/5/1 4/4/1
f 1/1/1 6/6/1 5/5/1
f 1/1/1 7/7/1 6/6/1
f 1/1/1 2/3/1 7/7/1
f 10/8/2 9/9/2 8/10/2
f 10/8/2 8/10/2 11/11/2
f 10/8/2 11/11/2 12/12/2
f 10/8/2 12/12/2 13/13/2
f 10/8/2 13/13/2 14/14/2
f 10/8/2 14/14/2 9/9/2
f 7/7/3 2/3/3 9/9/3 14/14/3
f 2/3/4 3/2/4 8/10/4 9/9/4
f 6/6/5 7/7/5 14/14/5 13/13/5
f 5/5/6 6/6/6 13/13/6 12/12/6
f 4/4/7 5/5/7 12/12/7 11/11/7
f 3/2/8 4/4/8 11/11/8 8/10/8
f 15/15/9 27/16/9 16/17/9
f 16/17/10 27/16/10 17/18/10
f 17/18/11 27/16/11 18/19/11
f 18/19/12 27/16/12 19/20/12
f 19/20/13 27/16/13 20/21/13
f 20/21/14 27/16/14 21/22/14
f 21/22/15 27/16/15 22/23/15
f 22/23/16 27/16/16 23/24/16
f 23/24/17 27/16/17 24/25/17
f 24/25/18 27/16/18 25/26/18
f 15/27/1 16/28/1 17/29/1 18/30/1 19/31/1 20/32/1 21/33/1 22/34/1 23/35/1 24/36/1 25/37/1 26/38/1
f 25/26/19 27/16/19 26/39/19
f 26/39/20 27/16/20 15/15/20
