# Blender v3.0.0 OBJ File: ''
# www.blender.org
mtllib chest_small.mtl
o Cylinder
v -0.751465 0.555880 -0.693614
v 0.751465 0.555880 -0.693614
v -0.751465 0.555880 0.693614
v 0.751465 0.555880 0.693614
v -0.751465 0.663735 0.680287
v 0.751465 0.663735 0.680287
v -0.751465 0.767445 0.640816
v 0.751465 0.767446 0.640816
v -0.751465 0.863026 0.576719
v 0.751465 0.863026 0.576719
v -0.751465 0.946802 0.490459
v 0.751465 0.946802 0.490459
v -0.751465 1.015556 0.385352
v 0.751465 1.015556 0.385352
v -0.751465 1.066645 0.265435
v 0.751465 1.066645 0.265435
v -0.751465 1.098105 0.135317
v 0.751465 1.098105 0.135317
v -0.751465 1.108728 -0.000000
v 0.751465 1.108728 -0.000000
v -0.751465 1.098105 -0.135317
v 0.751465 1.098105 -0.135317
v -0.751465 1.066645 -0.265435
v 0.751465 1.066645 -0.265435
v -0.751465 1.015556 -0.385351
v 0.751465 1.015556 -0.385351
v -0.751465 0.946802 -0.490459
v 0.751465 0.946802 -0.490459
v -0.751465 0.863026 -0.576719
v 0.751465 0.863026 -0.576719
v -0.751465 0.767445 -0.640816
v 0.751465 0.767446 -0.640816
v -0.751465 0.663735 -0.680287
v 0.751465 0.663735 -0.680287
v -0.751465 0.003032 0.693614
v -0.751465 0.555880 0.693614
v -0.751465 0.003032 -0.693614
v -0.751465 0.555880 -0.693614
v 0.751465 0.003032 0.693614
v 0.751465 0.555880 0.693614
v 0.751465 0.003032 -0.693614
v 0.751465 0.555880 -0.693614
vt 0.000000 0.500000
vt 0.000000 1.000000
vt 0.500000 1.000000
vt 0.500000 0.500000
vt 0.031250 1.000000
vt 0.062500 1.000000
vt 0.093750 1.000000
vt 0.125000 1.000000
vt 0.156250 1.000000
vt 0.187500 1.000000
vt 0.218750 1.000000
vt 0.250000 1.000000
vt 0.281250 1.000000
vt 0.312500 1.000000
vt 0.343750 1.000000
vt 0.375000 1.000000
vt 0.406250 1.000000
vt 0.437500 1.000000
vt 0.468750 1.000000
vt 0.468750 0.500000
vt 0.437500 0.500000
vt 0.406250 0.500000
vt 0.375000 0.500000
vt 0.343750 0.500000
vt 0.312500 0.500000
vt 0.281250 0.500000
vt 0.250000 0.500000
vt 0.218750 0.500000
vt 0.187500 0.500000
vt 0.156250 0.500000
vt 0.125000 0.500000
vt 0.093750 0.500000
vt 0.062500 0.500000
vt 0.031250 0.500000
vt 0.375000 0.000000
vt 0.625000 0.000000
vt 0.625000 0.250000
vt 0.375000 0.250000
vt 0.625000 0.500000
vt 0.375000 0.500000
vt 0.625000 0.750000
vt 0.375000 0.750000
vt 0.625000 1.000000
vt 0.375000 1.000000
vt 0.125000 0.500000
vt 0.125000 0.750000
vt 0.875000 0.500000
vt 0.875000 0.750000
vn 0.0000 -1.0000 0.0000
vn 1.0000 -0.0000 0.0000
vn -1.0000 -0.0000 0.0000
vn -0.0000 0.1226 0.9925
vn -0.0000 0.3557 0.9346
vn -0.0000 0.5570 0.8305
vn -0.0000 0.7174 0.6967
vn -0.0000 0.8369 0.5474
vn 0.0000 0.9200 0.3919
vn 0.0000 0.9720 0.2350
vn 0.0000 0.9969 0.0783
vn 0.0000 0.9969 -0.0783
vn 0.0000 0.9720 -0.2350
vn 0.0000 0.9200 -0.3919
vn -0.0000 0.8369 -0.5474
vn -0.0000 0.7174 -0.6967
vn -0.0000 0.5570 -0.8305
vn -0.0000 0.3557 -0.9346
vn 0.0000 0.1226 -0.9925
vn 0.0000 0.0000 -1.0000
vn 0.0000 0.0000 1.0000
vn 0.0000 1.0000 0.0000
usemtl None
s off
f 1/1/1 2/2/1 4/3/1 3/4/1
f 4/3/2 2/2/2 34/5/2 32/6/2 30/7/2 28/8/2 26/9/2 24/10/2 22/11/2 20/12/2 18/13/2 16/14/2 14/15/2 12/16/2 10/17/2 8/18/2 6/19/2
f 1/1/3 3/4/3 5/20/3 7/21/3 9/22/3 11/23/3 13/24/3 15/25/3 17/26/3 19/27/3 21/28/3 23/29/3 25/30/3 27/31/3 29/32/3 31/33/3 33/34/3
f 3/4/4 4/3/4 6/19/4 5/20/4
f 5/20/5 6/19/5 8/18/5 7/21/5
f 7/21/6 8/18/6 10/17/6 9/22/6
f 9/22/7 10/17/7 12/16/7 11/23/7
f 11/23/8 12/16/8 14/15/8 13/24/8
f 13/24/9 14/15/9 16/14/9 15/25/9
f 15/25/10 16/14/10 18/13/10 17/26/10
f 17/26/11 18/13/11 20/12/11 19/27/11
f 19/27/12 20/12/12 22/11/12 21/28/12
f 21/28/13 22/11/13 24/10/13 23/29/13
f 23/29/14 24/10/14 26/9/14 25/30/14
f 25/30/15 26/9/15 28/8/15 27/31/15
f 27/31/16 28/8/16 30/7/16 29/32/16
f 29/32/17 30/7/17 32/6/17 31/33/17
f 31/33/18 32/6/18 34/5/18 33/34/18
f 33/34/19 34/5/19 2/2/19 1/1/19
f 35/35/3 36/36/3 38/37/3 37/38/3
f 37/38/20 38/37/20 42/39/20 41/40/20
f 41/40/2 42/39/2 40/41/2 39/42/2
f 39/42/21 40/41/21 36/43/21 35/44/21
f 37/45/1 41/40/1 39/42/1 35/46/1
f 42/39/22 38/47/22 36/48/22 40/41/22
