# Blender v3.0.0 OBJ File: ''
# www.blender.org
mtllib crate.mtl
o Cube_Cube.001
v 0.508816 0.657412 -0.307669
v 0.508816 0.631952 -0.333129
v 0.534276 0.631952 -0.307669
v 0.508816 0.069789 -0.333129
v 0.508816 0.044330 -0.307669
v 0.534276 0.069789 -0.307669
v 0.508816 0.657412 0.307669
v 0.534276 0.631952 0.307669
v 0.508816 0.631952 0.333129
v 0.508816 0.044330 0.307669
v 0.508816 0.069789 0.333129
v 0.534276 0.069789 0.307669
v -0.508816 0.657412 -0.307669
v -0.534276 0.631952 -0.307669
v -0.508816 0.631952 -0.333129
v -0.508816 0.044330 -0.307669
v -0.508816 0.069789 -0.333129
v -0.534276 0.069789 -0.307669
v -0.508816 0.657412 0.307669
v -0.508816 0.631952 0.333129
v -0.534276 0.631952 0.307669
v -0.508816 0.044330 0.307669
v -0.534276 0.069789 0.307669
v -0.508816 0.069789 0.333129
v 0.558853 0.644882 -0.321822
v 0.532222 0.671513 -0.321822
v 0.532222 0.644882 -0.348453
v 0.558853 0.056859 -0.321822
v 0.532222 0.056859 -0.348453
v 0.532222 0.030228 -0.321822
v 0.532222 0.644882 0.348453
v 0.532222 0.671513 0.321822
v 0.558853 0.644882 0.321822
v 0.558853 0.056859 0.321822
v 0.532222 0.030228 0.321822
v 0.532222 0.056859 0.348453
v -0.532222 0.644882 -0.348453
v -0.532222 0.671513 -0.321822
v -0.558853 0.644882 -0.321822
v -0.558853 0.056859 -0.321822
v -0.532222 0.030228 -0.321822
v -0.532222 0.056859 -0.348453
v -0.558853 0.644882 0.321822
v -0.532222 0.671513 0.321822
v -0.532222 0.644882 0.348453
v -0.532222 0.056859 0.348453
v -0.532222 0.030228 0.321822
v -0.558853 0.056859 0.321822
v 0.558853 0.644882 -0.321822
v 0.532222 0.671513 -0.321822
v 0.532222 0.644882 -0.348453
v 0.558853 0.056859 -0.321822
v 0.532222 0.056859 -0.348453
v 0.532222 0.030228 -0.321822
v 0.532222 0.644882 0.348453
v 0.532222 0.671513 0.321822
v 0.558853 0.644882 0.321822
v 0.558853 0.056859 0.321822
v 0.532222 0.030228 0.321822
v 0.532222 0.056859 0.348453
v -0.532222 0.644882 -0.348453
v -0.532222 0.671513 -0.321822
v -0.558853 0.644882 -0.321822
v -0.558853 0.056859 -0.321822
v -0.532222 0.030228 -0.321822
v -0.532222 0.056859 -0.348453
v -0.558853 0.644882 0.321822
v -0.532222 0.671513 0.321822
v -0.532222 0.644882 0.348453
v -0.532222 0.056859 0.348453
v -0.532222 0.030228 0.321822
v -0.558853 0.056859 0.321822
v 0.581306 0.658511 -0.335451
v 0.545851 0.693966 -0.335451
v 0.545851 0.658511 -0.370906
v 0.581306 0.043231 -0.335451
v 0.545851 0.043231 -0.370906
v 0.545851 0.007775 -0.335451
v 0.545851 0.658511 0.370906
v 0.545851 0.693966 0.335451
v 0.581306 0.658511 0.335451
v 0.581306 0.043231 0.335451
v 0.545851 0.007775 0.335451
v 0.545851 0.043231 0.370906
v -0.545851 0.658511 -0.370906
v -0.545851 0.693966 -0.335451
v -0.581306 0.658511 -0.335451
v -0.581306 0.043231 -0.335451
v -0.545851 0.007775 -0.335451
v -0.545851 0.043231 -0.370906
v -0.581306 0.658511 0.335451
v -0.545851 0.693966 0.335451
v -0.545851 0.658511 0.370906
v -0.545851 0.043231 0.370906
v -0.545851 0.007775 0.335451
v -0.581306 0.043231 0.335451
v 0.545851 0.693966 0.335451
v 0.532222 0.671513 0.321822
v -0.545851 0.007775 -0.335451
v -0.532222 0.030228 -0.321822
v 0.581306 0.658511 0.335451
v 0.558853 0.644882 0.321822
v -0.532222 0.671513 0.321822
v -0.545851 0.693966 0.335451
v 0.532222 0.644882 0.348453
v 0.545851 0.658511 0.370906
v -0.545851 0.658511 0.370906
v -0.532222 0.644882 0.348453
v 0.545851 0.693966 -0.335451
v 0.532222 0.671513 -0.321822
v -0.532222 0.671513 -0.321822
v -0.545851 0.693966 -0.335451
v 0.581306 0.043231 0.335451
v 0.558853 0.056859 0.321822
v -0.558853 0.644882 0.321822
v -0.581306 0.658511 0.335451
v -0.581306 0.658511 -0.335451
v -0.558853 0.644882 -0.321822
v 0.545851 0.007775 -0.335451
v 0.532222 0.030228 -0.321822
v -0.545851 0.043231 0.370906
v -0.532222 0.056859 0.348453
v 0.532222 0.056859 0.348453
v 0.545851 0.043231 0.370906
v -0.545851 0.043231 -0.370906
v -0.532222 0.056859 -0.348453
v -0.532222 0.644882 -0.348453
v -0.545851 0.658511 -0.370906
v 0.581306 0.043231 -0.335451
v 0.558853 0.056859 -0.321822
v 0.558853 0.644882 -0.321822
v 0.581306 0.658511 -0.335451
v 0.545851 0.007775 0.335451
v 0.532222 0.030228 0.321822
v -0.532222 0.030228 0.321822
v -0.545851 0.007775 0.335451
v -0.581306 0.043231 -0.335451
v -0.558853 0.056859 -0.321822
v -0.558853 0.056859 0.321822
v -0.581306 0.043231 0.335451
v 0.545851 0.658511 -0.370906
v 0.532222 0.644882 -0.348453
v 0.532222 0.056859 -0.348453
v 0.545851 0.043231 -0.370906
v 0.394317 0.713877 0.236517
v 0.387503 0.697037 0.229703
v -0.394317 -0.012136 -0.236517
v -0.387503 0.004704 -0.229703
v 0.601218 0.566530 0.236517
v 0.584378 0.559716 0.229703
v -0.387503 0.697037 0.229703
v -0.394317 0.713877 0.236517
v 0.387503 0.559716 0.373978
v 0.394317 0.566530 0.390818
v -0.394317 0.566530 0.390818
v -0.387503 0.559716 0.373978
v 0.394317 0.713877 -0.236517
v 0.387503 0.697037 -0.229703
v -0.387503 0.697037 -0.229703
v -0.394317 0.713877 -0.236517
v 0.601218 0.135211 0.236517
v 0.584378 0.142026 0.229703
v -0.584378 0.559716 0.229703
v -0.601218 0.566530 0.236517
v -0.601218 0.566530 -0.236517
v -0.584378 0.559716 -0.229703
v 0.394317 -0.012136 -0.236517
v 0.387503 0.004704 -0.229703
v -0.394317 0.135211 0.390818
v -0.387503 0.142026 0.373978
v 0.387503 0.142026 0.373978
v 0.394317 0.135211 0.390818
v -0.394317 0.135211 -0.390818
v -0.387503 0.142026 -0.373978
v -0.387503 0.559716 -0.373978
v -0.394317 0.566530 -0.390818
v 0.601218 0.135211 -0.236517
v 0.584378 0.142026 -0.229703
v 0.584378 0.559716 -0.229703
v 0.601218 0.566530 -0.236517
v 0.394317 -0.012136 0.236517
v 0.387503 0.004704 0.229703
v -0.387503 0.004704 0.229703
v -0.394317 -0.012136 0.236517
v -0.601218 0.135211 -0.236517
v -0.584378 0.142026 -0.229703
v -0.584378 0.142026 0.229703
v -0.601218 0.135211 0.236517
v 0.394317 0.566530 -0.390818
v 0.387503 0.559716 -0.373978
v 0.387503 0.142026 -0.373978
v 0.394317 0.135211 -0.390818
vt 0.385382 0.755957
vt 0.385382 0.994044
vt 0.614618 0.994043
vt 0.614618 0.755957
vt 0.385382 0.509553
vt 0.385382 0.740447
vt 0.614618 0.740447
vt 0.614618 0.509553
vt 0.630957 0.509553
vt 0.630957 0.740447
vt 0.869043 0.740447
vt 0.869043 0.509553
vt 0.385382 0.009553
vt 0.385382 0.240447
vt 0.614618 0.240447
vt 0.614618 0.009553
vt 0.385382 0.255957
vt 0.385382 0.494043
vt 0.614618 0.494043
vt 0.614618 0.255957
vt 0.385382 0.740447
vt 0.614618 0.740447
vt 0.869043 0.740447
vt 0.869043 0.509553
vt 0.614618 0.494043
vt 0.614618 0.255957
vt 0.614618 0.755957
vt 0.385382 0.755957
vt 0.614618 0.009553
vt 0.385382 0.009553
vt 0.630957 0.509553
vt 0.614618 0.509553
vt 0.385382 0.994044
vt 0.614618 0.994043
vt 0.385382 0.255957
vt 0.385382 0.494043
vt 0.630957 0.740447
vt 0.385382 0.240447
vt 0.369043 0.509553
vt 0.369043 0.509553
vt 0.130957 0.509553
vt 0.130957 0.509553
vt 0.385382 0.509553
vt 0.130957 0.740447
vt 0.130957 0.740447
vt 0.614618 0.240447
vt 0.369043 0.740447
vt 0.369043 0.740447
vt 0.869043 0.740447
vt 0.869043 0.509553
vt 0.614618 0.494043
vt 0.614618 0.255957
vt 0.614618 0.755957
vt 0.385382 0.755957
vt 0.614618 0.009553
vt 0.385382 0.009553
vt 0.630957 0.509553
vt 0.614618 0.740447
vt 0.614618 0.509553
vt 0.385382 0.994044
vt 0.614618 0.994043
vt 0.385382 0.255957
vt 0.385382 0.494043
vt 0.630957 0.740447
vt 0.385382 0.240447
vt 0.369043 0.509553
vt 0.130957 0.509553
vt 0.385382 0.509553
vt 0.385382 0.740447
vt 0.130957 0.740447
vt 0.614618 0.240447
vt 0.369043 0.740447
vt 0.614618 0.740447
vt 0.614618 0.509553
vt 0.369043 0.500000
vt 0.369043 0.500000
vt 0.130957 0.500000
vt 0.130957 0.500000
vt 0.614618 0.009553
vt 0.385382 0.009553
vt 0.625000 0.994043
vt 0.625000 0.994043
vt 0.625000 0.755957
vt 0.625000 0.755957
vt 0.630957 0.509553
vt 0.630957 0.740447
vt 0.130957 0.509553
vt 0.130957 0.509553
vt 0.369043 0.509553
vt 0.369043 0.509553
vt 0.385382 0.994044
vt 0.614618 0.994043
vt 0.130957 0.750000
vt 0.130957 0.750000
vt 0.369043 0.750000
vt 0.369043 0.750000
vt 0.385382 0.509553
vt 0.385382 0.740447
vt 0.614618 0.240447
vt 0.614618 0.240447
vt 0.385382 0.240447
vt 0.385382 0.240447
vt 0.385382 0.240447
vt 0.369043 0.740447
vt 0.369043 0.740447
vt 0.130957 0.740447
vt 0.130957 0.740447
vt 0.369043 0.740447
vt 0.369043 0.509553
vt 0.385382 0.255957
vt 0.385382 0.255957
vt 0.614618 0.255957
vt 0.614618 0.255957
vt 0.130957 0.509553
vt 0.130957 0.740447
vt 0.614618 0.740447
vt 0.614618 0.740447
vt 0.385382 0.740447
vt 0.385382 0.740447
vt 0.385382 0.494043
vt 0.614618 0.494043
vt 0.614618 0.009553
vt 0.614618 0.009553
vt 0.385382 0.755957
vt 0.385382 0.755957
vt 0.614618 0.755957
vt 0.614618 0.755957
vt 0.125000 0.740447
vt 0.614618 0.994043
vt 0.614618 1.000000
vt 0.125000 0.509553
vt 0.625000 0.255957
vt 0.614618 0.250000
vt 0.625000 0.255957
vt 0.375000 0.740447
vt 0.614618 0.750000
vt 0.625000 0.755957
vt 0.375000 0.509553
vt 0.625000 0.509553
vt 0.614618 0.500000
vt 0.625000 0.509553
vt 0.385382 0.000000
vt 0.385382 0.009553
vt 0.614618 0.000000
vt 0.625000 0.009553
vt 0.625000 0.240447
vt 0.614618 0.494043
vt 0.625000 0.494043
vt 0.614618 0.509553
vt 0.385382 0.494043
vt 0.385382 0.509553
vt 0.630957 0.509553
vt 0.630957 0.740447
vt 0.625000 0.240447
vt 0.625000 0.009553
vt 0.614618 0.509553
vt 0.614618 0.255957
vt 0.385382 0.009553
vt 0.625000 0.240447
vt 0.625000 0.009553
vt 0.385382 0.009553
vt 0.385382 0.240447
vt 0.614618 0.509553
vt 0.614618 0.740447
vt 0.369043 0.740447
vt 0.369043 0.509553
vt 0.385382 0.009553
vt 0.614618 0.009553
vt 0.130957 0.509553
vt 0.130957 0.740447
vt 0.630957 0.740447
vt 0.630957 0.740447
vt 0.630957 0.509553
vt 0.630957 0.509553
vt 0.385382 0.494043
vt 0.614618 0.494043
vt 0.614618 0.000000
vt 0.614618 0.000000
vt 0.385382 0.000000
vt 0.385382 0.000000
vt 0.385382 0.740447
vt 0.385382 0.509553
vt 0.385382 0.509553
vt 0.614618 0.509553
vt 0.385382 0.509553
vt 0.125000 0.509553
vt 0.125000 0.509553
vt 0.125000 0.740447
vt 0.125000 0.740447
vt 0.369043 0.509553
vt 0.369043 0.740447
vt 0.614618 0.255957
vt 0.130957 0.740447
vt 0.130957 0.509553
vt 0.614618 0.494043
vt 0.614618 0.494043
vt 0.385382 0.494043
vt 0.385382 0.494043
vt 0.869043 0.509553
vt 0.869043 0.509553
vt 0.630957 0.509553
vt 0.614618 0.994043
vt 0.614618 0.755957
vt 0.614618 0.755957
vt 0.385382 0.255957
vt 0.385382 0.255957
vt 0.630957 0.740447
vt 0.869043 0.740447
vt 0.869043 0.740447
vt 0.614618 0.255957
vt 0.385382 0.755957
vt 0.385382 0.755957
vt 0.385382 0.994044
vt 0.614618 0.994043
vt 0.625000 0.494043
vt 0.625000 0.255957
vt 0.614618 0.240447
vt 0.385382 0.740447
vt 0.869043 0.740447
vt 0.385382 0.240447
vt 0.614618 0.240447
vt 0.614618 0.240447
vt 0.385382 0.755957
vt 0.385382 0.994044
vt 0.385382 0.255957
vt 0.614618 0.009553
vt 0.614618 0.740447
vt 0.869043 0.509553
vt 0.614618 0.755957
vt 0.614618 0.994043
vt 0.130957 0.750000
vt 0.369043 0.750000
vt 0.625000 0.994043
vt 0.625000 0.755957
vt 0.369043 0.500000
vt 0.130957 0.500000
vt 0.625000 0.494043
vt 0.625000 0.255957
vn 0.0000 0.0000 -1.0000
vn -1.0000 0.0000 0.0000
vn 0.0000 -1.0000 0.0000
vn 1.0000 0.0000 0.0000
vn 0.0000 0.0000 1.0000
vn -0.4990 0.0000 0.8666
vn -0.5160 -0.8566 0.0000
vn 0.0000 0.7643 0.6449
vn 0.5478 0.0000 -0.8366
vn 0.4990 0.0000 0.8666
vn 0.0000 -0.7084 -0.7058
vn -0.4656 0.8850 0.0000
vn -0.5478 0.0000 -0.8366
vn 0.0000 -0.7643 0.6449
vn 0.5160 -0.8566 0.0000
vn 0.4656 -0.8850 0.0000
vn 0.0000 0.7643 -0.6449
vn 0.0000 0.7084 -0.7058
vn -0.4656 -0.8850 0.0000
vn -0.5160 0.8566 0.0000
vn 0.0000 -0.7084 0.7058
vn 0.4990 0.0000 -0.8666
vn 0.5160 0.8566 0.0000
vn 0.0000 -0.7643 -0.6449
vn -0.5478 0.0000 0.8366
vn 0.0000 1.0000 0.0000
vn -0.4990 0.0000 -0.8666
vn 0.4656 0.8850 0.0000
vn 0.0000 0.7084 0.7058
vn 0.5478 0.0000 0.8366
vn 0.5774 0.5773 -0.5773
vn 0.5774 -0.5773 -0.5774
vn 0.5774 0.5773 0.5773
vn 0.5774 -0.5773 0.5774
vn -0.5773 0.5774 -0.5773
vn -0.5773 -0.5774 -0.5773
vn -0.5773 0.5774 0.5773
vn -0.5773 -0.5774 0.5773
vn 0.7071 0.7071 0.0000
vn 0.7071 0.0000 -0.7071
vn 0.7071 -0.7071 0.0000
vn 0.7071 0.0000 0.7071
vn 0.0000 0.7071 0.7071
vn 0.0000 -0.7071 0.7071
vn -0.7071 0.0000 0.7071
vn -0.7071 0.7071 0.0000
vn -0.7071 -0.7071 0.0000
vn -0.7071 0.0000 -0.7071
vn 0.0000 0.7071 -0.7071
vn 0.0000 -0.7071 -0.7071
vn 0.1303 -0.9915 0.0000
vn -0.9579 -0.2871 0.0000
vn -0.9774 -0.2116 0.0000
vn 0.1737 -0.9848 0.0000
vn 0.9803 0.0000 -0.1973
vn -0.1737 -0.9848 0.0000
vn -0.1303 -0.9915 0.0000
vn 0.1737 0.0000 -0.9848
vn 0.1303 0.0000 -0.9915
vn -0.9774 0.2116 0.0000
vn 0.9637 0.0000 -0.2670
vn 0.9774 0.2116 0.0000
vn -0.1303 0.9915 0.0000
vn 0.0000 0.2871 -0.9579
vn 0.1303 0.9915 0.0000
vn -0.1303 0.0000 0.9915
vn 0.0000 0.9637 -0.2670
vn 0.0000 0.2871 0.9579
vn -0.9803 0.0000 0.1973
vn 0.0000 -0.2871 -0.9579
vn 0.0000 0.9637 0.2670
vn 0.0000 -0.2116 0.9774
vn 0.0000 -0.9637 -0.2670
vn 0.0000 -0.2871 0.9579
vn 0.0000 0.3751 -0.9270
vn -0.3751 -0.9270 0.0000
vn -0.9270 0.3751 0.0000
vn 0.0000 -0.3751 0.9270
vn 0.3751 0.0000 -0.9270
vn 0.9270 0.3751 0.0000
vn 0.0000 -0.9270 -0.3751
vn -0.9270 0.0000 0.3751
vn 0.9270 0.0000 0.3751
vn 0.0000 0.3751 0.9270
vn 0.3751 0.9270 0.0000
vn -0.3751 0.0000 -0.9270
vn -0.3751 0.0000 0.9270
vn -0.9270 -0.3751 0.0000
vn 0.0000 0.9270 0.3751
vn 0.9270 0.0000 -0.3751
vn 0.3751 0.0000 0.9270
vn 0.0000 -0.3751 -0.9270
vn -0.3751 0.9270 0.0000
vn -0.9270 0.0000 -0.3751
vn 0.0000 0.9270 -0.3751
vn 0.3751 -0.9270 0.0000
vn 0.9270 -0.3751 0.0000
vn 0.0000 -0.9270 0.3751
vn 0.9579 -0.2871 0.0000
vn -0.1303 0.0000 -0.9915
vn -0.1737 0.0000 0.9848
vn 0.9774 -0.2116 0.0000
vn 0.1737 0.9848 0.0000
vn -0.9803 0.0000 -0.1973
vn -0.9637 -0.0000 0.2670
vn 0.1303 0.0000 0.9915
vn 0.9579 0.2871 0.0000
vn 0.0000 0.9803 -0.1973
vn -0.1737 0.9848 0.0000
vn 0.9803 0.0000 0.1973
vn 0.1737 0.0000 0.9848
vn 0.0000 0.2116 -0.9774
vn -0.9579 0.2871 0.0000
vn 0.0000 0.9803 0.1973
vn 0.9637 0.0000 0.2670
vn 0.0000 -0.9803 -0.1973
vn -0.1737 0.0000 -0.9848
vn 0.0000 0.2116 0.9774
vn 0.0000 -0.9637 0.2670
vn -0.0000 -0.2116 -0.9774
vn -0.9637 -0.0000 -0.2670
vn 0.0000 -0.9803 0.1973
usemtl None
s off
f 15/1/1 2/2/1 4/3/1 17/4/1
f 21/5/2 14/6/2 18/7/2 23/8/2
f 22/9/3 16/10/3 5/11/3 10/12/3
f 3/13/4 8/14/4 12/15/4 6/16/4
f 9/17/5 20/18/5 24/19/5 11/20/5
f 14/6/6 39/21/6 40/22/6 18/7/6
f 5/11/7 30/23/7 35/24/7 10/12/7
f 24/19/8 46/25/8 36/26/8 11/20/8
f 17/4/9 42/27/9 37/28/9 15/1/9
f 6/16/10 28/29/10 25/30/10 3/13/10
f 10/12/11 35/24/11 47/31/11 22/9/11
f 18/7/12 40/22/12 48/32/12 23/8/12
f 2/2/13 27/33/13 29/34/13 4/3/13
f 9/17/14 31/35/14 45/36/14 20/18/14
f 22/9/15 47/31/15 41/37/15 16/10/15
f 3/13/16 25/30/16 33/38/16 8/14/16
f 4/3/17 29/34/17 42/27/17 17/4/17
f 19/39/18 44/40/18 32/41/18 7/42/18
f 21/5/19 43/43/19 39/21/19 14/6/19
f 7/42/20 32/41/20 26/44/20 1/45/20
f 16/10/21 41/37/21 30/23/21 5/11/21
f 8/14/22 33/38/22 34/46/22 12/15/22
f 13/47/23 38/48/23 44/40/23 19/39/23
f 15/1/24 37/28/24 27/33/24 2/2/24
f 11/20/25 36/26/25 31/35/25 9/17/25
f 7/42/26 1/45/26 13/47/26 19/39/26
f 30/23/5 54/49/5 59/50/5 35/24/5
f 46/25/5 70/51/5 60/52/5 36/26/5
f 42/27/5 66/53/5 61/54/5 37/28/5
f 28/29/5 52/55/5 49/56/5 25/30/5
f 35/24/5 59/50/5 71/57/5 47/31/5
f 40/22/5 64/58/5 72/59/5 48/32/5
f 27/33/5 51/60/5 53/61/5 29/34/5
f 31/35/5 55/62/5 69/63/5 45/36/5
f 47/31/5 71/57/5 65/64/5 41/37/5
f 25/30/5 49/56/5 57/65/5 33/38/5
f 29/34/5 53/61/5 66/53/5 42/27/5
f 44/40/5 68/66/5 56/67/5 32/41/5
f 43/43/5 67/68/5 63/69/5 39/21/5
f 32/41/5 56/67/5 50/70/5 26/44/5
f 41/37/5 65/64/5 54/49/5 30/23/5
f 33/38/5 57/65/5 58/71/5 34/46/5
f 38/48/5 62/72/5 68/66/5 44/40/5
f 37/28/5 61/54/5 51/60/5 27/33/5
f 36/26/5 60/52/5 55/62/5 31/35/5
f 45/36/5 69/63/5 70/51/5 46/25/5
f 23/8/27 48/32/27 43/43/27 21/5/27
f 12/15/28 34/46/28 28/29/28 6/16/28
f 1/45/29 26/44/29 38/48/29 13/47/29
f 20/18/30 45/36/30 46/25/30 24/19/30
f 64/58/5 138/73/5 139/74/5 72/59/5
f 93/75/5 107/76/5 106/77/5 79/78/5
f 52/55/5 130/79/5 131/80/5 49/56/5
f 78/81/5 119/82/5 99/83/5 89/84/5
f 71/57/5 135/85/5 100/86/5 65/64/5
f 80/87/5 97/88/5 104/89/5 92/90/5
f 51/60/5 142/91/5 143/92/5 53/61/5
f 75/93/5 141/94/5 128/95/5 85/96/5
f 67/68/5 115/97/5 118/98/5 63/69/5
f 82/99/5 113/100/5 101/101/5 81/102/5
f 49/56/5 131/80/5 102/103/5 57/65/5
f 86/104/5 112/105/5 109/106/5 74/107/5
f 62/72/5 111/108/5 103/109/5 68/66/5
f 79/110/5 106/111/5 124/112/5 84/113/5
f 56/67/5 98/114/5 110/115/5 50/70/5
f 88/116/5 137/117/5 117/118/5 87/119/5
f 69/63/5 108/120/5 122/121/5 70/51/5
f 76/122/5 129/123/5 113/100/5 82/99/5
f 85/124/5 128/125/5 125/126/5 90/127/5
f 72/59/5 139/74/5 115/97/5 67/68/5
f 39/21/5 63/69/5 64/58/5 40/22/5
f 48/32/5 72/59/5 67/68/5 43/43/5
f 34/46/5 58/71/5 52/55/5 28/29/5
f 26/44/5 50/70/5 62/72/5 38/48/5
f 74/107/31 73/128/31 75/93/31
f 77/129/32 76/130/32 78/81/32
f 80/87/33 79/78/33 81/131/33
f 83/132/34 82/133/34 84/134/34
f 86/104/35 85/96/35 87/135/35
f 89/84/36 88/136/36 90/137/36
f 92/90/37 91/138/37 93/75/37
f 95/139/38 94/140/38 96/141/38
f 80/87/39 81/131/39 73/128/39 74/107/39
f 75/142/40 73/143/40 76/122/40 77/144/40
f 78/145/41 76/122/41 82/99/41 83/146/41
f 84/113/42 82/99/42 81/102/42 79/110/42
f 92/90/43 93/75/43 79/78/43 80/87/43
f 83/132/44 84/113/44 94/147/44 95/148/44
f 96/149/45 94/147/45 93/150/45 91/151/45
f 86/104/46 87/119/46 91/151/46 92/90/46
f 95/152/47 96/149/47 88/116/47 89/153/47
f 90/127/48 88/116/48 87/119/48 85/124/48
f 74/107/49 75/93/49 85/96/49 86/104/49
f 89/84/50 90/127/50 77/129/50 78/81/50
f 83/146/5 133/154/5 119/155/5 78/145/5
f 96/149/5 140/156/5 137/117/5 88/116/5
f 70/51/5 122/121/5 123/157/5 60/52/5
f 73/143/5 132/158/5 129/123/5 76/122/5
f 133/154/51 181/159/51 167/160/51 119/155/51
f 131/80/52 179/161/52 150/162/52 102/103/52
f 140/156/53 188/163/53 185/164/53 137/117/53
f 111/108/54 159/165/54 151/166/54 103/109/54
f 132/158/55 180/167/55 177/168/55 129/123/55
f 98/114/56 146/169/56 158/170/56 110/115/56
f 99/171/57 147/172/57 184/173/57 136/174/57
f 108/120/58 156/175/58 170/176/58 122/121/58
f 144/177/59 192/178/59 189/179/59 141/180/59
f 117/118/60 165/181/60 164/182/60 116/183/60
f 139/74/61 187/184/61 163/185/61 115/97/61
f 101/186/62 149/187/62 180/188/62 132/189/62
f 104/89/63 152/190/63 160/191/63 112/105/63
f 122/121/64 170/176/64 171/192/64 123/157/64
f 109/106/65 157/193/65 145/194/65 97/88/65
f 121/195/66 169/196/66 155/197/66 107/198/66
f 134/199/67 182/200/67 183/201/67 135/85/67
f 143/92/68 191/202/68 174/203/68 126/204/68
f 116/183/69 164/182/69 188/163/69 140/156/69
f 105/205/70 153/206/70 156/175/70 108/120/70
f 100/86/71 148/207/71 168/208/71 120/209/71
f 124/112/72 172/210/72 169/196/72 121/195/72
f 103/109/73 151/166/73 146/169/73 98/114/73
f 127/211/74 175/212/74 190/213/74 142/91/74
f 90/127/5 125/126/5 144/214/5 77/129/5
f 54/49/5 120/209/5 134/199/5 59/50/5
f 95/148/5 136/215/5 133/216/5 83/132/5
f 66/53/5 126/204/5 127/211/5 61/54/5
f 58/71/5 114/217/5 130/79/5 52/55/5
f 84/113/5 124/112/5 121/195/5 94/147/5
f 63/69/5 118/98/5 138/73/5 64/58/5
f 60/52/5 123/157/5 105/205/5 55/62/5
f 91/151/5 116/183/5 140/156/5 96/149/5
f 50/70/5 110/115/5 111/108/5 62/72/5
f 57/65/5 102/103/5 114/217/5 58/71/5
f 94/147/5 121/195/5 107/198/5 93/150/5
f 61/54/5 127/211/5 142/91/5 51/60/5
f 74/107/5 109/106/5 97/88/5 80/87/5
f 68/66/5 103/109/5 98/114/5 56/67/5
f 92/90/5 104/89/5 112/105/5 86/104/5
f 65/64/5 100/86/5 120/209/5 54/49/5
f 81/131/5 101/186/5 132/189/5 73/128/5
f 55/62/5 105/205/5 108/120/5 69/63/5
f 87/119/5 117/118/5 116/183/5 91/151/5
f 53/61/5 143/92/5 126/204/5 66/53/5
f 77/144/5 144/177/5 141/180/5 75/142/5
f 59/50/5 134/199/5 135/85/5 71/57/5
f 89/153/5 99/171/5 136/174/5 95/152/5
f 151/166/75 152/190/75 145/194/75 146/169/75
f 163/185/76 164/182/76 165/181/76 166/218/76
f 146/169/77 145/194/77 157/193/77 158/170/77
f 148/207/78 147/172/78 167/219/78 168/208/78
f 150/162/79 149/220/79 161/221/79 162/222/79
f 159/165/80 160/191/80 152/190/80 151/166/80
f 175/212/81 176/223/81 189/224/81 190/213/81
f 171/192/82 172/210/82 154/225/82 153/206/82
f 156/175/83 155/197/83 169/196/83 170/176/83
f 158/170/84 157/193/84 160/191/84 159/165/84
f 162/222/85 161/221/85 177/168/85 178/226/85
f 187/184/86 188/163/86 164/182/86 163/185/86
f 166/218/87 165/181/87 185/164/87 186/227/87
f 168/208/88 167/219/88 181/228/88 182/200/88
f 170/176/89 169/196/89 172/210/89 171/192/89
f 174/203/90 173/229/90 176/223/90 175/212/90
f 178/226/91 177/168/91 180/167/91 179/161/91
f 182/200/92 181/228/92 184/173/92 183/201/92
f 186/227/93 185/164/93 188/163/93 187/184/93
f 190/213/94 189/224/94 192/230/94 191/202/94
f 191/202/95 192/230/95 173/229/95 174/203/95
f 179/161/96 180/167/96 149/220/96 150/162/96
f 183/201/97 184/173/97 147/172/97 148/207/97
f 153/206/98 154/225/98 155/197/98 156/175/98
f 115/97/99 163/185/99 166/218/99 118/98/99
f 128/125/100 176/223/100 173/229/100 125/126/100
f 142/91/101 190/213/101 191/202/101 143/92/101
f 129/123/102 177/168/102 161/221/102 113/100/102
f 135/85/103 183/201/103 148/207/103 100/86/103
f 137/117/104 185/164/104 165/181/104 117/118/104
f 130/79/105 178/226/105 179/161/105 131/80/105
f 106/111/106 154/225/106 172/210/106 124/112/106
f 138/73/107 186/227/107 187/184/107 139/74/107
f 112/105/108 160/191/108 157/193/108 109/106/108
f 120/209/109 168/208/109 182/200/109 134/199/109
f 113/100/110 161/221/110 149/220/110 101/101/110
f 126/204/111 174/203/111 175/212/111 127/211/111
f 141/94/112 189/231/112 176/232/112 128/95/112
f 114/217/113 162/222/113 178/226/113 130/79/113
f 97/88/114 145/194/114 152/190/114 104/89/114
f 118/98/115 166/218/115 186/227/115 138/73/115
f 119/82/116 167/233/116 147/234/116 99/83/116
f 123/157/117 171/192/117 153/206/117 105/205/117
f 107/76/118 155/235/118 154/236/118 106/77/118
f 110/115/119 158/170/119 159/165/119 111/108/119
f 125/126/120 173/229/120 192/230/120 144/214/120
f 102/103/121 150/162/121 162/222/121 114/217/121
f 136/215/122 184/237/122 181/238/122 133/216/122
