# Blender v3.0.0 OBJ File: ''
# www.blender.org
mtllib gem.mtl
o Icosphere_Icosphere.001
v -0.000000 -0.925327 -0.000000
v -0.233871 -0.423869 0.303335
v 0.082180 -0.413750 0.514737
v 0.232288 -0.433767 -0.000000
v 0.082180 -0.413750 -0.514737
v -0.233871 -0.423869 -0.303335
v -0.099750 0.362787 0.829709
v 0.203787 0.297138 0.371869
v 0.203787 0.297138 -0.371869
v -0.099750 0.362787 -0.829709
v -0.290283 0.201643 -0.000000
v 0.051744 -0.775327 0.264883
v -0.135470 -0.775327 0.163706
v -0.083710 -0.479699 0.471026
v -0.269994 -0.494888 -0.000000
v -0.135470 -0.775327 -0.163706
v 0.160459 -0.775326 -0.000000
v 0.199569 -0.487431 0.294164
v 0.051744 -0.775327 -0.264883
v 0.199569 -0.487431 -0.294164
v -0.083710 -0.479699 -0.471026
v -0.297886 -0.083375 0.193077
v -0.297886 -0.083375 -0.193077
v -0.005016 -0.012263 0.762220
v -0.189044 -0.024380 0.632908
v 0.237991 -0.091223 0.209114
v 0.139742 -0.023001 0.639580
v 0.139742 -0.023001 -0.639580
v 0.237991 -0.091223 -0.209114
v -0.189044 -0.024380 -0.632908
v -0.005016 -0.012263 -0.762220
v -0.231472 0.383685 0.551069
v 0.084064 0.413610 0.710962
v 0.245204 0.186834 -0.000000
v 0.084064 0.413610 -0.710962
v -0.231472 0.383685 -0.551069
v -0.065934 0.743989 0.416751
v -0.176136 0.525116 -0.000000
v 0.118132 0.549828 0.131432
v 0.118132 0.549828 -0.131432
v -0.065934 0.743989 -0.416751
v -0.156263 0.536529 0.739503
v 0.163039 0.473640 0.478719
v 0.231208 0.334293 -0.172100
v -0.015106 0.539534 -0.780685
v -0.260298 0.387644 -0.284694
v -0.084226 0.628996 0.675978
v 0.177237 0.485100 0.296164
v 0.177237 0.485100 -0.296164
v -0.084226 0.628996 -0.675978
v -0.260298 0.387644 0.284694
v -0.015106 0.539534 0.780685
v 0.231208 0.334293 0.172100
v 0.163039 0.473640 -0.478719
v -0.156263 0.536529 -0.739503
v -0.256200 0.401056 -0.000000
v -0.121873 0.645406 -0.230444
v -0.221917 0.511407 -0.312161
v -0.156820 0.640889 -0.522568
v 0.023762 0.660155 -0.249986
v 0.019344 0.649819 -0.562388
v 0.120991 0.555373 -0.404389
v 0.093681 0.531251 -0.000000
v 0.023762 0.660155 0.249986
v 0.120991 0.555373 0.404389
v 0.019344 0.649819 0.562388
v -0.121873 0.645406 0.230444
v -0.156820 0.640890 0.522568
v -0.221917 0.511407 0.312161
v -0.014029 0.557700 0.055282
v -0.014029 0.557700 -0.055283
vt 0.181819 0.000000
vt 0.227273 0.078731
vt 0.136365 0.078731
vt 0.272728 0.157461
vt 0.318182 0.078731
vt 0.363637 0.157461
vt 0.909091 0.000000
vt 0.954545 0.078731
vt 0.863636 0.078731
vt 0.727273 0.000000
vt 0.772727 0.078731
vt 0.681818 0.078731
vt 0.545455 0.000000
vt 0.590909 0.078731
vt 0.500000 0.078731
vt 0.318182 0.236191
vt 0.090910 0.157461
vt 0.181819 0.157461
vt 0.136365 0.236191
vt 0.818182 0.157461
vt 0.909091 0.157461
vt 0.863636 0.236191
vt 0.636364 0.157461
vt 0.727273 0.157461
vt 0.681818 0.236191
vt 0.454546 0.157461
vt 0.545455 0.157461
vt 0.500000 0.236191
vt 0.227273 0.236191
vt 0.045455 0.236191
vt 0.772727 0.236191
vt 0.590909 0.236191
vt 0.409092 0.236191
vt 0.181819 0.314921
vt 0.227273 0.314921
vt 0.204546 0.354286
vt 0.000000 0.314921
vt 0.045455 0.314921
vt 0.022728 0.354286
vt 0.863636 0.393651
vt 0.818182 0.393651
vt 0.772727 0.393651
vt 0.750000 0.354286
vt 0.727273 0.314921
vt 0.772727 0.314921
vt 0.818182 0.314921
vt 0.863636 0.314921
vt 0.909091 0.314921
vt 0.886364 0.354286
vt 0.545455 0.314921
vt 0.590909 0.314921
vt 0.568182 0.354286
vt 0.363637 0.314921
vt 0.409091 0.314921
vt 0.386364 0.354286
vt 0.409092 0.393651
vt 0.431819 0.354286
vt 0.454546 0.393651
vt 0.454546 0.314921
vt 0.500000 0.314921
vt 0.477273 0.354286
vt 0.590909 0.393651
vt 0.613637 0.354286
vt 0.636364 0.393651
vt 0.636364 0.314921
vt 0.681818 0.314921
vt 0.659091 0.354286
vt 0.500000 0.393651
vt 0.590909 0.393651
vt 0.045455 0.393651
vt 0.068182 0.354286
vt 0.090910 0.393651
vt 0.090910 0.314921
vt 0.136364 0.314921
vt 0.113637 0.354286
vt 0.227273 0.393651
vt 0.250001 0.354286
vt 0.272728 0.393651
vt 0.272728 0.314921
vt 0.318182 0.314921
vt 0.295455 0.354286
vt 0.954545 0.236191
vt 1.000000 0.157461
vt 0.409092 0.078731
vt 0.363637 0.000000
vt 0.318182 0.393651
vt 0.136364 0.393651
vt 0.227273 0.393651
vt 0.409091 0.393651
vt 0.340910 0.354286
vt 0.318182 0.393651
vt 0.159092 0.354286
vt 0.136365 0.393651
vt 0.681818 0.393651
vt 0.704546 0.354286
vt 0.681818 0.393651
vt 0.522728 0.354286
vt 0.500000 0.393651
vn 0.2777 0.8117 -0.5139
vn 0.9238 0.3334 -0.1881
vn -0.6576 0.7034 -0.2699
vn -0.6576 0.7034 0.2699
vn 0.2777 0.8117 0.5139
vn 0.9795 0.1361 -0.1485
vn 0.0144 0.5269 -0.8498
vn -0.9925 0.0755 -0.0966
vn -0.8033 0.2854 0.5228
vn 0.7501 0.3687 0.5490
vn 0.9627 0.0995 -0.2516
vn -0.5978 0.3225 -0.7339
vn -0.9999 0.0166 -0.0000
vn -0.5978 0.3225 0.7339
vn 0.9627 0.0995 0.2516
vn -0.1309 -0.4900 -0.8618
vn -0.9809 -0.1737 -0.0872
vn -0.9261 -0.3773 0.0000
vn 0.5187 -0.4500 0.7269
vn 0.9857 -0.1685 -0.0063
vn 0.8249 -0.5570 -0.0965
vn 0.9463 -0.2904 0.1421
vn -0.7147 -0.6986 0.0332
vn -0.6272 -0.6754 0.3879
vn 0.0222 -0.8884 -0.4585
vn -0.7483 -0.6630 0.0213
vn -0.8198 -0.4485 -0.3560
vn 0.7891 -0.6084 0.0850
vn 0.9561 -0.2726 -0.1075
vn 0.9944 -0.0627 0.0854
vn 0.9678 0.0512 0.2464
vn 0.9045 0.0280 0.4255
vn -0.5461 0.0180 0.8376
vn -0.6440 0.0428 0.7639
vn -0.9474 -0.0575 0.3148
vn -0.9943 -0.0248 0.1034
vn -0.9997 0.0259 -0.0000
vn -0.9943 -0.0248 -0.1034
vn -0.9474 -0.0575 -0.3148
vn -0.6440 0.0428 -0.7639
vn -0.5461 0.0180 -0.8376
vn 0.9045 0.0280 -0.4255
vn 0.9678 0.0512 -0.2464
vn 0.9944 -0.0627 -0.0854
vn 0.5397 0.2792 0.7942
vn 0.5119 0.3905 0.7651
vn 0.0144 0.5269 0.8498
vn -0.9746 0.0079 0.2237
vn -0.9724 0.0451 0.2291
vn -0.9925 0.0755 0.0966
vn -0.9746 0.0079 -0.2237
vn -0.9724 0.0451 -0.2291
vn -0.8033 0.2854 -0.5228
vn 0.5397 0.2792 -0.7942
vn 0.5119 0.3905 -0.7651
vn 0.7501 0.3687 -0.5490
vn 0.9996 -0.0267 0.0000
vn 0.9977 0.0676 0.0000
vn 0.9795 0.1361 0.1485
vn 0.7418 0.4165 0.5256
vn 0.3656 0.6393 0.6765
vn -0.0095 0.5690 0.8223
vn -0.7301 0.4290 0.5319
vn -0.8229 0.4569 0.3377
vn -0.9761 0.2053 0.0711
vn -0.9761 0.2053 -0.0711
vn -0.8229 0.4569 -0.3377
vn -0.7301 0.4290 -0.5319
vn 0.9238 0.3334 0.1881
vn 0.9016 0.4325 0.0000
vn 0.7421 0.6702 0.0000
vn -0.0095 0.5690 -0.8223
vn 0.3656 0.6393 -0.6765
vn 0.7418 0.4165 -0.5256
vn 0.0280 -0.8870 0.4609
vn -0.1538 -0.9740 0.1663
vn -0.1538 -0.9740 -0.1663
vn -0.2385 -0.9711 0.0000
vn 0.1971 -0.9804 0.0000
vn -0.3298 -0.8075 0.4890
vn 0.0279 -0.8868 0.4612
vn 0.0222 -0.8884 0.4585
vn 0.8361 -0.5396 0.0989
vn 0.9551 -0.2962 -0.0002
vn 0.9857 -0.1685 0.0063
vn 0.8249 -0.5570 0.0965
vn 0.8236 -0.5601 0.0899
vn 0.9503 -0.2887 -0.1163
vn -0.2701 -0.8729 -0.4063
vn -0.3474 -0.8138 -0.4659
vn 0.5187 -0.4500 -0.7269
vn -0.7147 -0.6986 -0.0332
vn -0.7076 -0.7058 -0.0334
vn -0.8560 -0.4222 -0.2983
vn -0.3298 -0.8075 -0.4890
vn 0.0279 -0.8868 -0.4612
vn 0.0280 -0.8870 -0.4609
vn -0.7644 -0.6443 -0.0211
vn -0.8455 -0.5247 0.0987
vn -0.9809 -0.1737 0.0872
vn -0.7483 -0.6630 -0.0213
vn -0.7076 -0.7058 0.0334
vn -0.8560 -0.4222 0.2983
vn 0.5306 -0.7881 0.3122
vn 0.6111 -0.7127 0.3444
vn -0.1309 -0.4900 0.8618
vn 0.7891 -0.6084 -0.0850
vn 0.8236 -0.5601 -0.0899
vn 0.9503 -0.2887 0.1163
vn 0.8361 -0.5396 -0.0989
vn 0.9551 -0.2962 0.0002
vn 0.9561 -0.2726 0.1075
vn -0.2701 -0.8729 0.4063
vn -0.3474 -0.8138 0.4659
vn -0.8198 -0.4485 0.3560
vn -0.7644 -0.6443 0.0211
vn -0.8455 -0.5247 -0.0987
vn -0.6272 -0.6754 -0.3879
vn 0.5306 -0.7881 -0.3122
vn 0.6111 -0.7127 -0.3444
vn 0.9463 -0.2904 -0.1421
usemtl None
s off
f 1/1/1 13/2/1 12/3/1
f 2/4/2 13/5/2 15/6/2
f 1/7/3 12/8/3 17/9/3
f 1/10/4 17/11/4 19/12/4
f 1/13/5 19/14/5 16/15/5
f 2/4/6 15/6/6 22/16/6
f 3/17/7 14/18/7 24/19/7
f 4/20/8 18/21/8 26/22/8
f 5/23/9 20/24/9 28/25/9
f 6/26/10 21/27/10 30/28/10
f 2/4/11 22/16/11 25/29/11
f 3/17/12 24/19/12 27/30/12
f 4/20/13 26/22/13 29/31/13
f 5/23/14 28/25/14 31/32/14
f 6/26/15 30/28/15 23/33/15
f 7/34/16 42/35/16 47/36/16
f 8/37/17 43/38/17 48/39/17
f 39/40/18 63/41/18 40/42/18 49/43/18 9/44/18 44/45/18 34/46/18 53/47/18 8/48/18 48/49/18
f 10/50/19 45/51/19 50/52/19
f 11/53/20 46/54/20 56/55/20
f 38/56/21 58/57/21 57/58/21
f 36/59/22 55/60/22 59/61/22
f 41/62/23 61/63/23 60/64/23
f 35/65/24 54/66/24 62/67/24
f 38/56/25 57/68/25 71/69/25
f 39/70/26 65/71/26 64/72/26
f 33/73/27 52/74/27 66/75/27
f 37/76/28 68/77/28 67/78/28
f 32/79/29 51/80/29 69/81/29
f 23/33/30 36/59/30 46/54/30 11/53/30
f 23/33/31 30/28/31 36/59/31
f 30/28/32 10/50/32 55/60/32 36/59/32
f 31/32/33 35/65/33 45/51/33 10/50/33
f 31/32/34 28/25/34 35/65/34
f 28/25/35 9/44/35 54/66/35 35/65/35
f 29/31/36 34/46/36 44/45/36 9/44/36
f 29/31/37 26/22/37 34/46/37
f 26/22/38 8/48/38 53/47/38 34/46/38
f 27/30/39 33/73/39 43/38/39 8/37/39
f 27/30/40 24/19/40 33/73/40
f 24/19/41 7/34/41 52/74/41 33/73/41
f 25/29/42 32/79/42 42/35/42 7/34/42
f 25/29/43 22/16/43 32/79/43
f 22/16/44 11/53/44 51/80/44 32/79/44
f 30/28/45 31/32/45 10/50/45
f 30/28/46 21/27/46 31/32/46
f 21/27/47 5/23/47 31/32/47
f 28/25/48 29/31/48 9/44/48
f 28/25/49 20/24/49 29/31/49
f 20/24/50 4/20/50 29/31/50
f 26/22/51 27/82/51 8/48/51
f 26/22/52 18/21/52 27/82/52
f 18/21/53 3/83/53 27/82/53
f 24/19/54 25/29/54 7/34/54
f 24/19/55 14/18/55 25/29/55
f 14/18/56 2/4/56 25/29/56
f 22/16/57 23/33/57 11/53/57
f 22/16/58 15/6/58 23/33/58
f 15/6/59 6/26/59 23/33/59
f 16/15/60 21/27/60 6/26/60
f 16/15/61 19/14/61 21/27/61
f 19/14/62 5/23/62 21/27/62
f 19/12/63 20/24/63 5/23/63
f 19/12/64 17/11/64 20/24/64
f 17/11/65 4/20/65 20/24/65
f 17/9/66 18/21/66 4/20/66
f 17/9/67 12/8/67 18/21/67
f 12/8/68 3/83/68 18/21/68
f 15/6/69 16/84/69 6/26/69
f 15/6/70 13/5/70 16/84/70
f 13/5/71 1/85/71 16/84/71
f 12/3/72 14/18/72 3/17/72
f 12/3/73 13/2/73 14/18/73
f 13/2/74 2/4/74 14/18/74
f 37/76/75 67/86/75 64/87/75
f 39/70/76 70/88/76 63/89/76
f 63/89/77 71/69/77 40/42/77
f 63/89/78 70/88/78 71/69/78
f 70/88/79 38/56/79 71/69/79
f 64/87/80 70/88/80 39/70/80
f 64/87/81 67/86/81 70/88/81
f 67/86/82 38/56/82 70/88/82
f 69/81/83 56/90/83 38/91/83
f 69/81/84 51/80/84 56/90/84
f 51/80/85 11/53/85 56/90/85
f 67/78/86 69/81/86 38/91/86
f 67/78/87 68/77/87 69/81/87
f 68/77/88 32/79/88 69/81/88
f 66/75/89 47/92/89 37/93/89
f 66/75/90 52/74/90 47/92/90
f 52/74/91 7/34/91 47/92/91
f 64/72/92 66/75/92 37/93/92
f 64/72/93 65/71/93 66/75/93
f 65/71/94 33/73/94 66/75/94
f 71/69/95 60/94/95 40/42/95
f 71/69/96 57/68/96 60/94/96
f 57/68/97 41/62/97 60/94/97
f 62/67/98 49/95/98 40/96/98
f 62/67/99 54/66/99 49/95/99
f 54/66/100 9/44/100 49/95/100
f 60/64/101 62/67/101 40/96/101
f 60/64/102 61/63/102 62/67/102
f 61/63/103 35/65/103 62/67/103
f 59/61/104 50/97/104 41/98/104
f 59/61/105 55/60/105 50/97/105
f 55/60/106 10/50/106 50/97/106
f 57/58/107 59/61/107 41/98/107
f 57/58/108 58/57/108 59/61/108
f 58/57/109 36/59/109 59/61/109
f 56/55/110 58/57/110 38/56/110
f 56/55/111 46/54/111 58/57/111
f 46/54/112 36/59/112 58/57/112
f 50/52/113 61/63/113 41/62/113
f 50/52/114 45/51/114 61/63/114
f 45/51/115 35/65/115 61/63/115
f 48/39/116 65/71/116 39/70/116
f 48/39/117 43/38/117 65/71/117
f 43/38/118 33/73/118 65/71/118
f 47/36/119 68/77/119 37/76/119
f 47/36/120 42/35/120 68/77/120
f 42/35/121 32/79/121 68/77/121
