# Blender v3.0.0 OBJ File: ''
# www.blender.org
mtllib grave.mtl
o Cube
v -3.979588 5.000000 -1.000000
v -3.979588 3.000000 -1.000000
v -3.979588 5.000000 1.000000
v -3.979588 3.000000 1.000000
v -5.979588 5.000000 -1.000000
v -5.979588 3.000000 -1.000000
v -5.979588 5.000000 1.000000
v -5.979588 3.000000 1.000000
v -5.979588 -1.214550 -1.000000
v -5.979588 -1.214550 1.000000
v -3.979588 -1.214550 -1.000000
v -3.979588 -1.214550 1.000000
v -3.979588 3.000000 -1.000000
v -5.979588 3.000000 -1.000000
v -3.979588 5.000000 -1.000000
v -5.979588 5.000000 -1.000000
v -3.979588 3.000000 -3.000000
v -5.979588 3.000000 -3.000000
v -3.979588 5.000000 -3.000000
v -5.979588 5.000000 -3.000000
v -5.979588 3.000000 3.000000
v -5.979588 5.000000 3.000000
v -3.979588 5.000000 3.000000
v -3.979588 3.000000 3.000000
v -3.979588 7.000000 1.000000
v -5.979588 7.000000 1.000000
v -3.979588 7.000000 -1.000000
v -5.979588 7.000000 -1.000000
vt 0.625000 0.500000
vt 0.875000 0.500000
vt 0.875000 0.500000
vt 0.625000 0.500000
vt 0.375000 1.000000
vt 0.375000 0.750000
vt 0.375000 0.750000
vt 0.375000 1.000000
vt 0.375000 0.000000
vt 0.625000 0.000000
vt 0.625000 0.250000
vt 0.375000 0.250000
vt 0.375000 0.250000
vt 0.375000 0.000000
vt 0.375000 0.500000
vt 0.625000 0.750000
vt 0.375000 0.500000
vt 0.625000 0.500000
vt 0.125000 0.500000
vt 0.375000 0.500000
vt 0.375000 0.750000
vt 0.125000 0.750000
vt 0.375000 1.000000
vt 0.375000 0.500000
vt 0.625000 0.500000
vt 0.625000 0.250000
vt 0.375000 0.250000
vt 0.875000 0.500000
vt 0.375000 0.250000
vt 0.625000 0.250000
vt 0.875000 0.500000
vt 0.625000 0.750000
vt 0.625000 1.000000
vt 0.875000 0.750000
vt 0.875000 0.750000
vt 0.375000 0.000000
vt 0.625000 0.000000
vt 0.875000 0.750000
vt 0.625000 0.750000
vt 0.625000 0.000000
vt 0.625000 0.250000
vn 0.0000 0.0000 -1.0000
vn 0.0000 -1.0000 0.0000
vn -1.0000 0.0000 0.0000
vn 1.0000 0.0000 0.0000
vn 0.0000 0.0000 1.0000
vn 0.0000 1.0000 0.0000
usemtl Material
s off
f 1/1/1 5/2/1 28/3/1 27/4/1
f 8/5/2 4/6/2 24/7/2 21/8/2
f 8/9/3 7/10/3 5/11/3 6/12/3
f 8/9/3 6/12/3 9/13/3 10/14/3
f 2/15/4 1/1/4 3/16/4 4/6/4
f 1/1/5 2/15/5 13/17/5 15/18/5
f 9/19/2 11/20/2 12/21/2 10/22/2
f 2/15/4 4/6/4 12/21/4 11/20/4
f 6/12/1 2/15/1 11/20/1 9/13/1
f 4/6/5 8/5/5 10/23/5 12/21/5
f 15/18/4 13/17/4 17/24/4 19/25/4
f 6/12/5 5/11/5 16/26/5 14/27/5
f 2/15/5 6/12/5 14/27/5 13/17/5
f 5/2/5 1/1/5 15/18/5 16/28/5
f 18/29/1 20/30/1 19/25/1 17/24/1
f 14/27/3 16/26/3 20/30/3 18/29/3
f 13/17/2 14/27/2 18/29/2 17/24/2
f 16/28/6 15/18/6 19/25/6 20/31/6
f 24/7/5 23/32/5 22/33/5 21/8/5
f 3/16/6 7/34/6 22/35/6 23/32/6
f 4/6/4 3/16/4 23/32/4 24/7/4
f 7/10/3 8/9/3 21/36/3 22/37/3
f 27/4/6 28/3/6 26/38/6 25/39/6
f 7/34/5 3/16/5 25/39/5 26/38/5
f 5/11/3 7/10/3 26/40/3 28/41/3
f 3/16/4 1/1/4 27/4/4 25/39/4
o Plane
v -2.500000 0.000000 2.000000
v 6.000000 0.000000 2.000000
v -2.500000 0.000000 -2.000000
v 6.000000 0.000000 -2.000000
v -1.049283 0.430239 -1.317309
v -1.049283 0.430239 1.317309
v 4.549283 0.430239 1.317309
v 4.549283 0.430239 -1.317309
vt 0.000000 0.000000
vt 0.000000 1.000000
vt 1.000000 1.000000
vt 1.000000 0.000000
vt 0.000000 0.000000
vt 1.000000 0.000000
vt 1.000000 1.000000
vt 0.000000 1.000000
vn 0.0000 -1.0000 0.0000
vn 0.0000 1.0000 0.0000
vn 0.2843 0.9587 0.0000
vn -0.2843 0.9587 0.0000
vn 0.0000 0.8460 -0.5332
vn 0.0000 0.8460 0.5332
usemtl None
s off
f 29/42/7 31/43/7 32/44/7 30/45/7
f 34/46/8 35/47/8 36/48/8 33/49/8
f 30/45/9 32/44/9 36/48/9 35/47/9
f 31/43/10 29/42/10 34/46/10 33/49/10
f 32/44/11 31/43/11 33/49/11 36/48/11
f 29/42/12 30/45/12 35/47/12 34/46/12
