# Blender v3.0.0 OBJ File: ''
# www.blender.org
mtllib pointer.mtl
o Circle
v 0.000000 0.000000 0.000000
v 0.000000 0.000000 -1.000000
v -0.866025 0.000000 -0.500000
v -0.866025 0.000000 0.500000
v 0.000000 0.000000 1.000000
v 0.866025 0.000000 0.500000
v 0.866025 0.000000 -0.500000
v -1.807864 5.130733 0.000000
v 0.000000 5.130733 -1.000000
v -0.866025 5.130733 -0.500000
v -0.866025 5.130733 0.500000
v 0.000000 5.130733 1.000000
v 0.866025 5.130733 0.500000
v 0.866025 5.130733 -0.500000
v 0.000000 7.535473 0.000000
v -0.903932 5.130733 -1.565656
v -0.903932 5.130733 1.565656
v 0.903932 5.130733 1.565656
v 1.807864 5.130733 -0.000000
v 0.903932 5.130733 -1.565656
v -0.903932 5.130733 -1.565656
v 0.903932 5.130733 -1.565656
v -0.451966 6.333103 -0.782828
v 0.451966 6.333103 -0.782828
v 0.000000 5.130733 -1.565656
v -0.000000 5.150086 -2.535932
vt 0.500000 0.500000
vt 0.066987 0.750000
vt 0.500000 1.000000
vt 0.066987 0.250000
vt 0.500000 0.000000
vt 0.933013 0.250000
vt 0.933013 0.750000
vt 0.500000 0.000000
vt 0.933013 0.250000
vt 0.933013 0.250000
vt 0.500000 0.000000
vt 0.500000 1.000000
vt 0.066987 0.750000
vt 0.066987 0.750000
vt 0.500000 1.000000
vt 0.066987 0.250000
vt 0.066987 0.250000
vt 0.933013 0.750000
vt 0.933013 0.750000
vt 0.066987 0.750000
vt 0.066987 0.250000
vt 0.500000 0.000000
vt 0.933013 0.500000
vt 0.933013 0.250000
vt 0.500000 1.000000
vt 0.500000 1.000000
vt 0.716506 0.875000
vt 0.933013 0.750000
vt 0.716506 0.875000
vt 0.933013 0.750000
vt 0.716506 0.875000
vt 0.933013 0.750000
vn 0.0000 -1.0000 0.0000
vn -1.0000 0.0000 0.0000
vn 0.5000 0.0000 -0.8660
vn -0.5000 0.0000 -0.8660
vn 1.0000 0.0000 0.0000
vn 0.5000 0.0000 0.8660
vn -0.5000 0.0000 0.8660
vn -0.7258 0.5456 0.4190
vn 0.0000 0.5456 0.8380
vn 0.7258 0.5456 0.4190
vn 0.7258 0.5456 -0.4190
vn -0.7258 0.5456 -0.4190
vn 0.0000 0.5456 -0.8380
vn -0.9375 -0.3479 -0.0069
vn 0.9375 -0.3479 -0.0069
vn 0.0000 0.8289 -0.5594
usemtl None
s off
f 1/1/1 3/2/1 2/3/1
f 1/1/1 4/4/1 3/2/1
f 1/1/1 5/5/1 4/4/1
f 1/1/1 6/6/1 5/5/1
f 1/1/1 7/7/1 6/6/1
f 1/1/1 2/3/1 7/7/1
f 12/8/1 13/9/1 19/10/1 18/11/1
f 9/12/1 10/13/1 8/14/1 16/15/1
f 10/13/1 11/16/1 17/17/1 8/14/1
f 13/9/1 14/18/1 20/19/1 19/10/1
f 3/2/2 4/4/2 11/16/2 10/13/2
f 7/7/3 2/3/3 9/12/3 14/18/3
f 2/3/4 3/2/4 10/13/4 9/12/4
f 6/6/5 7/7/5 14/18/5 13/9/5
f 5/5/6 6/6/6 13/9/6 12/8/6
f 4/4/7 5/5/7 12/8/7 11/16/7
f 8/14/8 17/17/8 15/20/8
f 17/17/9 18/11/9 15/21/9
f 18/11/10 19/10/10 15/22/10
f 19/10/11 20/19/11 24/23/11 15/24/11
f 16/15/12 8/14/12 15/25/12 23/26/12
f 20/19/13 25/27/13 24/28/13
f 14/18/1 9/12/1 16/15/1 25/27/1 20/19/1
f 11/16/1 12/8/1 18/11/1 17/17/1
f 24/28/13 23/29/13 15/30/13
f 25/27/14 23/29/14 26/31/14
f 25/27/13 16/15/13 23/29/13
f 24/28/15 25/27/15 26/32/15
f 23/29/16 24/28/16 26/31/16
l 16 21
l 20 22
