# Blender v3.0.0 OBJ File: ''
# www.blender.org
mtllib smallmushroom2.mtl
o Sphere_Sphere.001
v -0.001937 2.630741 -0.914379
v 0.651344 2.630741 -0.643781
v 0.498062 2.955165 -0.490500
v -0.001937 2.955165 -0.697606
v -0.001937 3.171938 -0.373183
v 0.268661 3.171938 -0.261098
v -0.001938 3.248058 0.009500
v 0.731075 2.675199 0.742513
v 0.560594 3.038051 0.572032
v -0.001937 3.038051 0.805040
v -0.001937 2.675199 1.046137
v -0.001937 3.038051 -0.786040
v -0.001937 3.281789 -0.424402
v 0.304878 3.281789 -0.297315
v 0.560594 3.038051 -0.553032
v -0.001937 2.248058 -0.990500
v 0.705169 2.248058 -0.697607
v -0.001937 2.248058 -1.111705
v -0.001937 2.675199 -1.027136
v 0.731075 2.675199 -0.723513
v 0.790874 2.248058 -0.783311
v -0.001937 1.865375 -0.914379
v 0.651344 1.865375 -0.643781
v -0.001937 1.841729 1.052255
v -0.001937 2.248058 1.130705
v -0.794749 2.248058 0.802311
v -0.739277 1.841729 0.746839
v 0.998062 2.248058 0.009500
v 0.921942 2.630741 0.009500
v 0.705169 2.955165 0.009500
v 0.380746 3.171938 0.009500
v -0.734950 2.675199 0.742513
v 0.921942 1.865375 0.009500
v 0.790874 2.248058 0.802312
v -0.001937 3.281789 0.443403
v -0.308753 3.281789 0.316315
v -0.564469 3.038051 0.572032
v 0.651344 1.865375 0.662781
v 0.705169 2.248058 0.716607
v 0.651344 2.630741 0.662781
v 0.498062 2.955165 0.509500
v 0.268661 3.171938 0.280098
v 0.304878 3.281789 0.316315
v -0.001937 1.865375 0.933379
v -0.001937 2.248058 1.009500
v -0.001937 2.630741 0.933379
v -0.001937 2.955165 0.716607
v -0.001937 3.171938 0.392183
v 0.735402 1.841729 0.746839
v 1.034699 2.675199 0.009500
v 0.793603 3.038051 0.009500
v 1.040818 1.841729 0.009500
v 1.119267 2.248058 0.009500
v 0.431965 3.281789 0.009500
v -0.001938 3.369263 0.009500
v -0.709044 2.248058 0.716607
v -0.655219 2.630741 0.662781
v -0.501937 2.955165 0.509500
v -0.272535 3.171938 0.280098
v -0.655219 1.865375 0.662781
v -1.001937 2.248058 0.009500
v -0.925817 2.630741 0.009500
v -0.709044 2.955165 0.009500
v -0.384621 3.171938 0.009500
v -0.925817 1.865375 0.009500
v 0.735402 1.841729 -0.727839
v -0.001937 1.841729 -1.033255
v -0.655219 1.865375 -0.643781
v -0.709044 2.248058 -0.697606
v -0.655219 2.630741 -0.643781
v -0.501937 2.955165 -0.490500
v -0.272535 3.171938 -0.261098
v -1.038574 2.675199 0.009500
v -1.123142 2.248058 0.009500
v -0.435840 3.281789 0.009500
v -0.797477 3.038051 0.009500
v -1.044693 1.841729 0.009500
v -0.794749 2.248058 -0.783311
v -0.739277 1.841729 -0.727839
v -0.564469 3.038051 -0.553032
v -0.734950 2.675199 -0.723513
v -0.308753 3.281789 -0.297315
vt 0.750000 0.625000
vt 0.625000 0.625000
vt 0.625000 0.750000
vt 0.750000 0.750000
vt 0.750000 0.875000
vt 0.625000 0.875000
vt 0.687500 1.000000
vt 0.375000 0.625000
vt 0.375000 0.750000
vt 0.250000 0.750000
vt 0.250000 0.625000
vt 0.750000 0.750000
vt 0.750000 0.875000
vt 0.625000 0.875000
vt 0.625000 0.750000
vt 0.750000 0.500000
vt 0.625000 0.500000
vt 0.750000 0.500000
vt 0.750000 0.625000
vt 0.625000 0.625000
vt 0.625000 0.500000
vt 0.750000 0.375000
vt 0.625000 0.375000
vt 0.250000 0.375000
vt 0.250000 0.500000
vt 0.125000 0.500000
vt 0.125000 0.375000
vt 0.500000 0.500000
vt 0.500000 0.625000
vt 0.500000 0.750000
vt 0.500000 0.875000
vt 0.125000 0.625000
vt 0.500000 0.375000
vt 0.562500 1.000000
vt 0.375000 0.500000
vt 0.250000 0.875000
vt 0.125000 0.875000
vt 0.125000 0.750000
vt 0.375000 0.375000
vt 0.375000 0.500000
vt 0.375000 0.625000
vt 0.375000 0.750000
vt 0.375000 0.875000
vt 0.437500 1.000000
vt 0.375000 0.875000
vt 0.250000 0.375000
vt 0.250000 0.500000
vt 0.250000 0.625000
vt 0.250000 0.750000
vt 0.250000 0.875000
vt 0.312500 1.000000
vt 0.375000 0.375000
vt 0.500000 0.625000
vt 0.500000 0.750000
vt 0.500000 0.375000
vt 0.500000 0.500000
vt 0.500000 0.875000
vt 0.562500 1.000000
vt 0.125000 0.500000
vt 0.125000 0.625000
vt 0.125000 0.750000
vt 0.125000 0.875000
vt 0.125000 0.375000
vt 0.187500 1.000000
vt 0.000000 0.500000
vt 0.000000 0.625000
vt 0.000000 0.750000
vt 0.000000 0.875000
vt 0.000000 0.375000
vt 0.062500 1.000000
vt 0.625000 0.375000
vt 0.750000 0.375000
vt 1.000000 0.375000
vt 0.875000 0.375000
vt 0.875000 0.500000
vt 1.000000 0.500000
vt 1.000000 0.625000
vt 0.875000 0.625000
vt 0.875000 0.750000
vt 1.000000 0.750000
vt 1.000000 0.875000
vt 0.875000 0.875000
vt 0.937500 1.000000
vt 0.437500 1.000000
vt 0.812500 1.000000
vt 0.312500 1.000000
vt 0.687500 1.000000
vt 0.187500 1.000000
vt 0.000000 0.625000
vt 0.000000 0.500000
vt 0.000000 0.875000
vt 0.000000 0.750000
vt 0.000000 0.375000
vt 0.062500 1.000000
vt 1.000000 0.375000
vt 1.000000 0.500000
vt 0.875000 0.500000
vt 0.875000 0.375000
vt 1.000000 0.625000
vt 1.000000 0.750000
vt 0.875000 0.750000
vt 0.875000 0.625000
vt 1.000000 0.875000
vt 0.937500 1.000000
vt 0.875000 0.875000
vt 0.812500 1.000000
vn -0.3256 -0.5253 0.7862
vn -0.0805 -0.9776 0.1945
vn 0.3261 0.5232 0.7874
vn 0.2255 0.8079 -0.5445
vn -0.3764 -0.1807 0.9087
vn -0.2243 -0.8103 0.5414
vn 0.3764 0.1799 -0.9088
vn -0.3764 0.1807 0.9087
vn -0.3767 -0.1756 0.9095
vn -0.9087 -0.1807 0.3764
vn -0.5414 -0.8103 0.2243
vn -0.3764 0.1799 0.9088
vn -0.9087 0.1807 0.3764
vn -0.7862 -0.5253 0.3256
vn -0.1945 -0.9776 0.0805
vn 0.3764 0.1799 0.9088
vn -0.2255 0.8079 0.5445
vn -0.9087 0.1807 -0.3764
vn -0.7862 -0.5253 -0.3256
vn -0.1945 -0.9776 -0.0805
vn 0.2255 0.8079 0.5445
vn -0.3261 0.5232 0.7874
vn -0.9087 -0.1807 -0.3764
vn -0.5414 -0.8103 -0.2243
vn -0.3764 0.1807 -0.9087
vn -0.3256 -0.5253 -0.7862
vn -0.0805 -0.9776 -0.1945
vn 0.3767 -0.1756 0.9095
vn 0.7874 0.5232 0.3261
vn -0.3764 -0.1807 -0.9087
vn -0.2243 -0.8103 -0.5414
vn 0.9095 -0.1756 0.3767
vn 0.5445 0.8079 0.2255
vn 0.1970 0.9770 -0.0816
vn 0.3764 -0.1807 -0.9087
vn 0.2243 -0.8103 -0.5414
vn 0.7874 0.5232 -0.3261
vn 0.3764 0.1807 -0.9087
vn 0.3256 -0.5253 -0.7862
vn 0.0805 -0.9776 -0.1945
vn 0.9087 -0.1807 -0.3764
vn 0.5414 -0.8103 -0.2243
vn 0.5445 0.8079 -0.2255
vn 0.9087 0.1807 -0.3764
vn 0.7862 -0.5253 -0.3256
vn 0.1945 -0.9776 -0.0805
vn 0.9088 0.1799 0.3764
vn 0.9095 -0.1756 -0.3767
vn 0.3767 -0.1756 -0.9095
vn 0.9087 0.1807 0.3764
vn 0.7862 -0.5253 0.3256
vn 0.1945 -0.9776 0.0805
vn 0.1970 0.9770 0.0816
vn 0.9088 0.1799 -0.3764
vn 0.9087 -0.1807 0.3764
vn 0.5414 -0.8103 0.2243
vn 0.3256 -0.5253 0.7862
vn 0.0805 -0.9776 0.1945
vn 0.0816 0.9770 0.1970
vn 0.0816 0.9770 -0.1970
vn 0.3764 -0.1807 0.9087
vn 0.2243 -0.8103 0.5414
vn 0.3261 0.5232 -0.7874
vn 0.3764 0.1807 0.9087
vn -0.0816 0.9770 0.1970
vn -0.9088 0.1799 0.3764
vn -0.5445 0.8079 0.2255
vn -0.9095 -0.1756 0.3767
vn -0.7874 0.5232 0.3261
vn -0.1970 0.9770 0.0816
vn -0.9095 -0.1756 -0.3767
vn -0.7874 0.5232 -0.3261
vn -0.1970 0.9770 -0.0816
vn -0.9088 0.1799 -0.3764
vn -0.5445 0.8079 -0.2255
vn -0.3261 0.5232 -0.7874
vn -0.0816 0.9770 -0.1970
vn -0.3764 0.1799 -0.9088
vn -0.2255 0.8079 -0.5445
vn -0.3767 -0.1756 -0.9095
usemtl None
s 1
f 1/1/1 2/2/1 3/3/1 4/4/1
f 5/5/2 6/6/2 7/7/2
f 8/8/3 9/9/3 10/10/3 11/11/3
f 12/12/4 13/13/4 14/14/4 15/15/4
f 16/16/5 17/17/5 2/2/5 1/1/5
f 4/4/6 3/3/6 6/6/6 5/5/6
f 18/18/7 19/19/7 20/20/7 21/21/7
f 22/22/8 23/23/8 17/17/8 16/16/8
f 24/24/9 25/25/9 26/26/9 27/27/9
f 17/17/10 28/28/10 29/29/10 2/2/10
f 3/3/11 30/30/11 31/31/11 6/6/11
f 25/25/12 11/11/12 32/32/12 26/26/12
f 23/23/13 33/33/13 28/28/13 17/17/13
f 2/2/14 29/29/14 30/30/14 3/3/14
f 6/6/15 31/31/15 7/34/15
f 34/35/16 8/8/16 11/11/16 25/25/16
f 10/10/17 35/36/17 36/37/17 37/38/17
f 33/33/18 38/39/18 39/40/18 28/28/18
f 29/29/19 40/41/19 41/42/19 30/30/19
f 31/31/20 42/43/20 7/44/20
f 9/9/21 43/45/21 35/36/21 10/10/21
f 11/11/22 10/10/22 37/38/22 32/32/22
f 28/28/23 39/40/23 40/41/23 29/29/23
f 30/30/24 41/42/24 42/43/24 31/31/24
f 38/39/25 44/46/25 45/47/25 39/40/25
f 40/41/26 46/48/26 47/49/26 41/42/26
f 42/43/27 48/50/27 7/51/27
f 49/52/28 34/35/28 25/25/28 24/24/28
f 50/53/29 51/54/29 9/9/29 8/8/29
f 39/40/30 45/47/30 46/48/30 40/41/30
f 41/42/31 47/49/31 48/50/31 42/43/31
f 52/55/32 53/56/32 34/35/32 49/52/32
f 51/54/33 54/57/33 43/45/33 9/9/33
f 14/14/34 55/58/34 54/57/34
f 45/47/35 56/59/35 57/60/35 46/48/35
f 47/49/36 58/61/36 59/62/36 48/50/36
f 20/20/37 15/15/37 51/54/37 50/53/37
f 44/46/38 60/63/38 56/59/38 45/47/38
f 46/48/39 57/60/39 58/61/39 47/49/39
f 48/50/40 59/62/40 7/64/40
f 56/59/41 61/65/41 62/66/41 57/60/41
f 58/61/42 63/67/42 64/68/42 59/62/42
f 15/15/43 14/14/43 54/57/43 51/54/43
f 60/63/44 65/69/44 61/65/44 56/59/44
f 57/60/45 62/66/45 63/67/45 58/61/45
f 59/62/46 64/68/46 7/70/46
f 53/56/47 50/53/47 8/8/47 34/35/47
f 66/71/48 21/21/48 53/56/48 52/55/48
f 67/72/49 18/18/49 21/21/49 66/71/49
f 65/73/50 68/74/50 69/75/50 61/76/50
f 62/77/51 70/78/51 71/79/51 63/80/51
f 64/81/52 72/82/52 7/83/52
f 54/57/53 55/84/53 43/45/53
f 21/21/54 20/20/54 50/53/54 53/56/54
f 61/76/55 69/75/55 70/78/55 62/77/55
f 63/80/56 71/79/56 72/82/56 64/81/56
f 70/78/57 1/1/57 4/4/57 71/79/57
f 72/82/58 5/5/58 7/85/58
f 43/45/59 55/86/59 35/36/59
f 13/13/60 55/87/60 14/14/60
f 69/75/61 16/16/61 1/1/61 70/78/61
f 71/79/62 4/4/62 5/5/62 72/82/62
f 19/19/63 12/12/63 15/15/63 20/20/63
f 68/74/64 22/22/64 16/16/64 69/75/64
f 35/36/65 55/88/65 36/37/65
f 26/26/66 32/32/66 73/89/66 74/90/66
f 37/38/67 36/37/67 75/91/67 76/92/67
f 27/27/68 26/26/68 74/90/68 77/93/68
f 32/32/69 37/38/69 76/92/69 73/89/69
f 36/37/70 55/94/70 75/91/70
f 77/95/71 74/96/71 78/97/71 79/98/71
f 73/99/72 76/100/72 80/101/72 81/102/72
f 75/103/73 55/104/73 82/105/73
f 74/96/74 73/99/74 81/102/74 78/97/74
f 76/100/75 75/103/75 82/105/75 80/101/75
f 81/102/76 80/101/76 12/12/76 19/19/76
f 82/105/77 55/106/77 13/13/77
f 78/97/78 81/102/78 19/19/78 18/18/78
f 80/101/79 82/105/79 13/13/79 12/12/79
f 79/98/80 78/97/80 18/18/80 67/72/80
f 23/23/2 22/22/2 67/72/2 66/71/2
f 22/22/58 68/74/58 79/98/58 67/72/58
f 38/39/20 33/33/20 52/55/20 49/52/20
f 44/46/27 38/39/27 49/52/27 24/24/27
f 65/69/46 60/63/46 27/27/46 77/93/46
f 68/74/52 65/73/52 77/95/52 79/98/52
f 33/33/15 23/23/15 66/71/15 52/55/15
f 60/63/40 44/46/40 24/24/40 27/27/40
o Cube_Cube.001
v 0.579064 0.493413 -0.021446
v 0.034319 0.493413 0.576132
v -0.561803 0.549827 0.032715
v -0.017059 0.549827 -0.564863
v 0.004808 3.196152 -0.185102
v -0.173525 3.200367 0.011166
v 0.022784 3.205941 0.189417
v 0.201118 3.201726 -0.006851
v 0.257952 2.138793 0.018204
v 0.030443 2.144170 0.268593
v 0.032989 1.778572 0.294683
v 0.276717 1.786659 0.026472
v -0.219998 2.137059 0.041190
v -0.235342 1.787202 0.051106
v 0.007511 2.131682 -0.209199
v 0.008386 1.795289 -0.217105
v 0.242520 2.427393 0.011401
v 0.028364 2.432455 0.247096
v -0.207380 2.425761 0.033038
v 0.006777 2.420699 -0.202656
v 0.228139 2.696364 0.005061
v 0.026426 2.701131 0.227061
v -0.195620 2.694826 0.025441
v 0.006093 2.690059 -0.196559
v 0.214399 2.953331 -0.000996
v 0.024574 2.957817 0.207920
v -0.184385 2.951884 0.018183
v 0.005440 2.947398 -0.190733
v 0.345423 1.368735 -0.015316
v 0.032083 1.359603 0.329298
v 0.048184 0.935554 0.416365
v 0.421229 0.929660 0.006817
v -0.312617 1.361215 0.015923
v -0.361368 0.937793 0.043285
v 0.000723 1.370347 -0.328691
v 0.011676 0.931899 -0.366263
v 0.308321 1.591154 0.007068
v 0.032523 1.566370 0.309493
v -0.270888 1.594478 0.035101
v 0.004910 1.619261 -0.267325
v 0.616552 -0.417212 -0.068158
v -0.008733 -0.417212 0.617772
v -0.692992 -0.352457 -0.005989
v -0.067707 -0.352457 -0.691919
v 0.569556 -1.146347 -0.102092
v -0.046860 -1.146347 0.574108
v -0.721414 -1.082510 -0.040806
v -0.104998 -1.082510 -0.717007
vt 0.750000 0.625000
vt 0.750000 0.625000
vt 0.750000 0.625000
vt 0.750000 0.625000
vt 0.750000 0.625000
vt 0.750000 0.625000
vt 0.750000 0.625000
vt 0.750000 0.625000
vt 0.750000 0.625000
vt 0.750000 0.625000
vt 0.750000 0.625000
vt 0.750000 0.625000
vt 0.750000 0.625000
vt 0.750000 0.625000
vt 0.750000 0.625000
vt 0.750000 0.625000
vt 0.750000 0.625000
vt 0.750000 0.625000
vt 0.750000 0.625000
vt 0.750000 0.625000
vt 0.750000 0.625000
vt 0.750000 0.625000
vt 0.750000 0.625000
vt 0.750000 0.625000
vt 0.750000 0.625000
vt 0.750000 0.625000
vt 0.750000 0.625000
vt 0.750000 0.625000
vt 0.750000 0.625000
vt 0.750000 0.625000
vt 0.750000 0.625000
vt 0.750000 0.625000
vt 0.750000 0.625000
vt 0.750000 0.625000
vt 0.750000 0.625000
vt 0.750000 0.625000
vt 0.750000 0.625000
vt 0.750000 0.625000
vt 0.750000 0.625000
vt 0.750000 0.625000
vt 0.750000 0.625000
vt 0.750000 0.625000
vt 0.750000 0.625000
vt 0.750000 0.625000
vt 0.750000 0.625000
vt 0.750000 0.625000
vt 0.750000 0.625000
vt 0.750000 0.625000
vn 0.6756 0.0655 -0.7343
vn -0.0049 0.9997 -0.0259
vn 0.7389 0.0541 0.6717
vn 0.7394 0.0569 0.6708
vn 0.7405 0.0556 0.6697
vn -0.6713 0.0492 0.7396
vn -0.6682 0.0478 0.7424
vn -0.6744 0.0502 0.7366
vn -0.7401 0.0136 -0.6724
vn 0.6721 0.0188 -0.7402
vn 0.7396 0.0554 0.6708
vn -0.6722 0.0502 0.7387
vn -0.7399 0.0133 -0.6726
vn 0.6718 0.0185 -0.7405
vn 0.7295 0.1618 0.6646
vn -0.6675 0.1248 0.7341
vn -0.7390 0.0404 -0.6724
vn 0.6712 0.0793 -0.7370
vn 0.7372 0.0538 0.6735
vn 0.7368 0.0538 0.6739
vn 0.7366 0.0589 0.6738
vn -0.6684 0.0612 0.7413
vn -0.6689 0.0612 0.7408
vn -0.6687 0.0651 0.7407
vn -0.7321 0.1795 -0.6572
vn 0.6698 0.1750 -0.7216
vn 0.6618 0.1775 -0.7283
vn 0.6658 0.1754 -0.7253
vn 0.7360 0.0512 0.6751
vn 0.7392 0.0478 0.6718
vn 0.7406 0.0493 0.6702
vn 0.7337 0.0487 0.6777
vn -0.6690 0.0529 0.7414
vn -0.6700 0.0534 0.7405
vn -0.6653 0.0575 0.7444
vn -0.6713 0.0571 0.7390
vn -0.7308 0.1948 -0.6542
vn 0.6662 0.1858 -0.7222
vn 0.6668 0.1909 -0.7204
vn 0.6664 0.1910 -0.7208
vn 0.7222 0.2167 0.6569
vn -0.6348 0.2924 0.7152
vn -0.6845 0.3737 -0.6259
vn 0.6527 0.2963 -0.6973
vn -0.7377 0.0608 -0.6724
vn 0.7390 -0.0041 0.6737
vn -0.6688 0.0655 0.7405
vn -0.7322 0.1351 -0.6675
vn -0.0516 -0.9976 -0.0470
vn -0.6741 -0.0090 0.7386
vn 0.6732 -0.0090 -0.7394
vn 0.7367 -0.0787 0.6716
usemtl None
s off
f 86/107/81 83/108/81 123/109/81 126/110/81
f 87/111/82 88/112/82 89/113/82 90/114/82
f 91/115/83 92/116/83 93/117/84 94/118/85
f 92/116/86 95/119/86 96/120/87 93/117/88
f 95/119/89 97/121/89 98/122/89 96/120/89
f 97/121/90 91/115/90 94/118/90 98/122/90
f 99/123/91 100/124/91 92/116/91 91/115/91
f 100/124/92 101/125/92 95/119/92 92/116/92
f 101/125/93 102/126/93 97/121/93 95/119/93
f 102/126/94 99/123/94 91/115/94 97/121/94
f 103/127/91 104/128/91 100/124/91 99/123/91
f 104/128/92 105/129/92 101/125/92 100/124/92
f 105/129/93 106/130/93 102/126/93 101/125/93
f 106/130/94 103/127/94 99/123/94 102/126/94
f 107/131/91 108/132/91 104/128/91 103/127/91
f 108/132/92 109/133/92 105/129/92 104/128/92
f 109/133/93 110/134/93 106/130/93 105/129/93
f 110/134/94 107/131/94 103/127/94 106/130/94
f 90/114/91 89/113/91 108/132/91 107/131/91
f 89/113/92 88/112/92 109/133/92 108/132/92
f 88/112/93 87/111/93 110/134/93 109/133/93
f 87/111/94 90/114/94 107/131/94 110/134/94
f 111/135/95 112/136/95 113/137/95 114/138/95
f 112/136/96 115/139/96 116/140/96 113/137/96
f 115/139/97 117/141/97 118/142/97 116/140/97
f 117/141/98 111/135/98 114/138/98 118/142/98
f 119/143/99 120/144/100 112/136/101 111/135/101
f 120/144/102 121/145/103 115/139/104 112/136/104
f 121/145/105 122/146/105 117/141/105 115/139/105
f 122/146/106 119/143/107 111/135/108 117/141/108
f 94/118/109 93/117/110 120/144/111 119/143/112
f 93/117/113 96/120/114 121/145/115 120/144/116
f 96/120/117 98/122/117 122/146/117 121/145/117
f 98/122/118 94/118/118 119/143/119 122/146/120
f 114/138/121 113/137/121 84/147/121 83/108/121
f 113/137/122 116/140/122 85/148/122 84/147/122
f 116/140/123 118/142/123 86/107/123 85/148/123
f 118/142/124 114/138/124 83/108/124 86/107/124
f 125/149/125 126/110/125 130/150/125 129/151/125
f 83/108/126 84/147/126 124/152/126 123/109/126
f 84/147/127 85/148/127 125/149/127 124/152/127
f 85/148/128 86/107/128 126/110/128 125/149/128
f 127/153/129 128/154/129 129/151/129 130/150/129
f 124/152/130 125/149/130 129/151/130 128/154/130
f 126/110/131 123/109/131 127/153/131 130/150/131
f 123/109/132 124/152/132 128/154/132 127/153/132
