# Blender v3.0.0 OBJ File: ''
# www.blender.org
mtllib wand_bolt_default.mtl
o Cylinder_Cylinder.001
v 0.341673 11.068185 -0.339996
v 5.485624 17.894529 -1.036073
v 0.352470 11.059978 -0.340601
v 5.496421 17.886322 -1.036678
v 0.363302 11.052053 -0.338560
v 5.507253 17.878399 -1.034637
v 0.373752 11.044716 -0.333951
v 5.517703 17.871061 -1.030029
v 0.383420 11.038248 -0.326952
v 5.527371 17.864594 -1.023030
v 0.391933 11.032896 -0.317832
v 5.535884 17.859241 -1.013909
v 0.398964 11.028868 -0.306940
v 5.542915 17.855213 -1.003018
v 0.404243 11.026318 -0.294697
v 5.548194 17.852663 -0.990774
v 0.407568 11.025343 -0.281571
v 5.551519 17.851688 -0.977648
v 0.408810 11.025982 -0.268068
v 5.552761 17.852327 -0.964145
v 0.407922 11.028210 -0.254706
v 5.551873 17.854555 -0.950783
v 0.404938 11.031940 -0.241999
v 5.548889 17.858286 -0.938076
v 0.399972 11.037031 -0.230435
v 5.543923 17.863375 -0.926512
v 0.393216 11.043285 -0.220459
v 5.537167 17.869631 -0.916536
v 0.384928 11.050464 -0.212454
v 5.528879 17.876808 -0.908531
v 0.375429 11.058290 -0.206728
v 5.519380 17.884634 -0.902805
v 0.365082 11.066463 -0.203500
v 5.509032 17.892809 -0.899577
v 0.354285 11.074670 -0.202895
v 5.498236 17.901014 -0.898972
v 0.343453 11.082594 -0.204936
v 5.487404 17.908939 -0.901013
v 0.333002 11.089931 -0.209545
v 5.476954 17.916277 -0.905622
v 0.323335 11.096400 -0.216544
v 5.467286 17.922745 -0.912621
v 0.314822 11.101751 -0.225664
v 5.458773 17.928097 -0.921741
v 0.307791 11.105780 -0.236556
v 5.451741 17.932125 -0.932633
v 0.302511 11.108330 -0.248799
v 5.446462 17.934675 -0.944877
v 0.299186 11.109304 -0.261925
v 5.443137 17.935650 -0.958002
v 0.297945 11.108665 -0.275428
v 5.441895 17.935011 -0.971506
v 0.298833 11.106439 -0.288790
v 5.442783 17.932783 -0.984867
v 0.301817 11.102708 -0.301497
v 5.445768 17.929052 -0.997574
v 0.306782 11.097617 -0.313061
v 5.450733 17.923962 -1.009138
v 0.313539 11.091363 -0.323037
v 5.457490 17.917707 -1.019114
v 0.321826 11.084185 -0.331042
v 5.465777 17.910530 -1.027119
v 0.331326 11.076358 -0.336768
v 5.475277 17.902702 -1.032845
v -0.022108 10.585425 -0.283697
v -0.011311 10.577219 -0.284302
v -0.000479 10.569294 -0.282261
v 0.009972 10.561956 -0.277653
v 0.019639 10.555489 -0.270654
v 0.028152 10.550137 -0.261533
v 0.035183 10.546108 -0.250642
v 0.040463 10.543558 -0.238398
v 0.043787 10.542583 -0.225272
v 0.045029 10.543222 -0.211769
v 0.044141 10.545450 -0.198407
v 0.041157 10.549181 -0.185700
v 0.036191 10.554271 -0.174137
v 0.029435 10.560526 -0.164161
v 0.021148 10.567704 -0.156156
v 0.011648 10.575530 -0.150429
v 0.001301 10.583704 -0.147201
v -0.009496 10.591910 -0.146596
v -0.020328 10.599834 -0.148637
v -0.030778 10.607172 -0.153246
v -0.040446 10.613641 -0.160245
v -0.048959 10.618992 -0.169365
v -0.055990 10.623020 -0.180257
v -0.061270 10.625570 -0.192501
v -0.064594 10.626545 -0.205626
v -0.065836 10.625906 -0.219130
v -0.064948 10.623679 -0.232492
v -0.061964 10.619948 -0.245198
v -0.056998 10.614858 -0.256762
v -0.050242 10.608603 -0.266738
v -0.041955 10.601425 -0.274743
v -0.032455 10.593598 -0.280470
vt 1.000000 0.500000
vt 1.000000 1.000000
vt 0.968750 1.000000
vt 0.968750 0.500000
vt 0.937500 1.000000
vt 0.937500 0.500000
vt 0.906250 1.000000
vt 0.906250 0.500000
vt 0.875000 1.000000
vt 0.875000 0.500000
vt 0.843750 1.000000
vt 0.843750 0.500000
vt 0.812500 1.000000
vt 0.812500 0.500000
vt 0.781250 1.000000
vt 0.781250 0.500000
vt 0.750000 1.000000
vt 0.750000 0.500000
vt 0.718750 1.000000
vt 0.718750 0.500000
vt 0.687500 1.000000
vt 0.687500 0.500000
vt 0.656250 1.000000
vt 0.656250 0.500000
vt 0.625000 1.000000
vt 0.625000 0.500000
vt 0.593750 1.000000
vt 0.593750 0.500000
vt 0.562500 1.000000
vt 0.562500 0.500000
vt 0.531250 1.000000
vt 0.531250 0.500000
vt 0.500000 1.000000
vt 0.500000 0.500000
vt 0.468750 1.000000
vt 0.468750 0.500000
vt 0.437500 1.000000
vt 0.437500 0.500000
vt 0.406250 1.000000
vt 0.406250 0.500000
vt 0.375000 1.000000
vt 0.375000 0.500000
vt 0.343750 1.000000
vt 0.343750 0.500000
vt 0.312500 1.000000
vt 0.312500 0.500000
vt 0.281250 1.000000
vt 0.281250 0.500000
vt 0.250000 1.000000
vt 0.250000 0.500000
vt 0.218750 1.000000
vt 0.218750 0.500000
vt 0.187500 1.000000
vt 0.187500 0.500000
vt 0.156250 1.000000
vt 0.156250 0.500000
vt 0.125000 1.000000
vt 0.125000 0.500000
vt 0.093750 1.000000
vt 0.093750 0.500000
vt 0.062500 1.000000
vt 0.062500 0.500000
vt 0.296822 0.485388
vt 0.250000 0.490000
vt 0.203178 0.485388
vt 0.158156 0.471731
vt 0.116663 0.449553
vt 0.080294 0.419706
vt 0.050447 0.383337
vt 0.028269 0.341844
vt 0.014612 0.296822
vt 0.010000 0.250000
vt 0.014612 0.203178
vt 0.028269 0.158156
vt 0.050447 0.116663
vt 0.080294 0.080294
vt 0.116663 0.050447
vt 0.158156 0.028269
vt 0.203178 0.014612
vt 0.250000 0.010000
vt 0.296822 0.014612
vt 0.341844 0.028269
vt 0.383337 0.050447
vt 0.419706 0.080294
vt 0.449553 0.116663
vt 0.471731 0.158156
vt 0.485388 0.203178
vt 0.490000 0.250000
vt 0.485388 0.296822
vt 0.471731 0.341844
vt 0.449553 0.383337
vt 0.419706 0.419706
vt 0.383337 0.449553
vt 0.341844 0.471731
vt 0.031250 1.000000
vt 0.031250 0.500000
vt 0.000000 1.000000
vt 0.000000 0.500000
vt 0.906250 0.500000
vt 0.937500 0.500000
vt 0.750000 0.490000
vt 0.796822 0.485388
vt 0.841844 0.471731
vt 0.883337 0.449553
vt 0.919706 0.419706
vt 0.949553 0.383337
vt 0.971731 0.341844
vt 0.985388 0.296822
vt 0.990000 0.250000
vt 0.985388 0.203178
vt 0.971731 0.158156
vt 0.949553 0.116663
vt 0.919706 0.080294
vt 0.883337 0.050447
vt 0.841844 0.028269
vt 0.796822 0.014612
vt 0.750000 0.010000
vt 0.703178 0.014612
vt 0.658156 0.028269
vt 0.616663 0.050447
vt 0.580294 0.080294
vt 0.550447 0.116663
vt 0.528269 0.158156
vt 0.514612 0.203178
vt 0.510000 0.250000
vt 0.514612 0.296822
vt 0.528269 0.341844
vt 0.550447 0.383337
vt 0.580294 0.419706
vt 0.616663 0.449553
vt 0.658156 0.471731
vt 0.703178 0.485388
vt 0.625000 0.500000
vt 0.656250 0.500000
vt 0.343750 0.500000
vt 0.375000 0.500000
vt 0.062500 0.500000
vt 0.093750 0.500000
vt 0.750000 0.500000
vt 0.781250 0.500000
vt 0.468750 0.500000
vt 0.500000 0.500000
vt 0.187500 0.500000
vt 0.218750 0.500000
vt 0.875000 0.500000
vt 0.593750 0.500000
vt 0.312500 0.500000
vt 0.031250 0.500000
vt 0.718750 0.500000
vt 0.437500 0.500000
vt 0.156250 0.500000
vt 0.843750 0.500000
vt 0.562500 0.500000
vt 0.281250 0.500000
vt 0.968750 0.500000
vt 1.000000 0.500000
vt 0.000000 0.500000
vt 0.687500 0.500000
vt 0.406250 0.500000
vt 0.125000 0.500000
vt 0.812500 0.500000
vt 0.531250 0.500000
vt 0.250000 0.500000
vn -0.0845 -0.0378 -0.9957
vn 0.0723 -0.1550 -0.9853
vn 0.2264 -0.2661 -0.9370
vn 0.3717 -0.3671 -0.8527
vn 0.5028 -0.4539 -0.7357
vn 0.6146 -0.5233 -0.5903
vn 0.7027 -0.5726 -0.4223
vn 0.7639 -0.5999 -0.2380
vn 0.7957 -0.6041 -0.0446
vn 0.7969 -0.5851 0.1505
vn 0.7674 -0.5436 0.3399
vn 0.7085 -0.4813 0.5161
vn 0.6224 -0.4004 0.6725
vn 0.5123 -0.3042 0.8031
vn 0.3826 -0.1962 0.9029
vn 0.2381 -0.0807 0.9679
vn 0.0845 0.0378 0.9957
vn -0.0723 0.1549 0.9853
vn -0.2263 0.2661 0.9370
vn -0.3717 0.3671 0.8527
vn -0.5028 0.4539 0.7356
vn -0.6146 0.5233 0.5903
vn -0.7027 0.5726 0.4223
vn -0.7639 0.5999 0.2380
vn -0.7957 0.6041 0.0446
vn -0.7969 0.5851 -0.1505
vn -0.7674 0.5436 -0.3398
vn -0.7085 0.4813 -0.5162
vn -0.6224 0.4004 -0.6725
vn -0.5123 0.3042 -0.8031
vn 0.5992 0.7952 -0.0927
vn -0.3826 0.1962 -0.9029
vn -0.2381 0.0808 -0.9679
vn 0.2198 -0.2748 -0.9360
vn -0.5992 -0.7952 0.0927
vn 0.7122 -0.4765 0.5155
vn -0.4977 0.4607 0.7349
vn -0.5179 0.2967 -0.8023
vn 0.7622 -0.6021 -0.2378
vn 0.0915 0.0471 0.9947
vn -0.7979 0.5837 -0.1503
vn 0.3658 -0.3750 -0.8518
vn 0.6271 -0.3942 0.6719
vn -0.6105 0.5288 0.5897
vn -0.3889 0.1879 -0.9019
vn 0.7953 -0.6045 -0.0446
vn -0.0654 0.1641 0.9843
vn -0.7698 0.5405 -0.3395
vn 0.4977 -0.4607 -0.7349
vn 0.5179 -0.2967 0.8023
vn -0.6998 0.5765 0.4218
vn -0.0915 -0.0471 -0.9947
vn -0.2449 0.0718 -0.9669
vn 0.7979 -0.5837 0.1504
vn -0.2198 0.2748 0.9360
vn -0.7121 0.4765 -0.5156
vn 0.6105 -0.5288 -0.5897
vn 0.3889 -0.1879 0.9019
vn -0.7622 0.6021 0.2378
vn 0.0654 -0.1641 -0.9843
vn 0.7698 -0.5405 0.3395
vn -0.3658 0.3750 0.8518
vn -0.6271 0.3942 -0.6718
vn 0.6998 -0.5765 -0.4218
vn 0.2449 -0.0718 0.9669
vn -0.7953 0.6045 0.0446
usemtl None
s off
f 1/1/1 2/2/1 4/3/1 3/4/1
f 3/4/2 4/3/2 6/5/2 5/6/2
f 5/6/3 6/5/3 8/7/3 7/8/3
f 7/8/4 8/7/4 10/9/4 9/10/4
f 9/10/5 10/9/5 12/11/5 11/12/5
f 11/12/6 12/11/6 14/13/6 13/14/6
f 13/14/7 14/13/7 16/15/7 15/16/7
f 15/16/8 16/15/8 18/17/8 17/18/8
f 17/18/9 18/17/9 20/19/9 19/20/9
f 19/20/10 20/19/10 22/21/10 21/22/10
f 21/22/11 22/21/11 24/23/11 23/24/11
f 23/24/12 24/23/12 26/25/12 25/26/12
f 25/26/13 26/25/13 28/27/13 27/28/13
f 27/28/14 28/27/14 30/29/14 29/30/14
f 29/30/15 30/29/15 32/31/15 31/32/15
f 31/32/16 32/31/16 34/33/16 33/34/16
f 33/34/17 34/33/17 36/35/17 35/36/17
f 35/36/18 36/35/18 38/37/18 37/38/18
f 37/38/19 38/37/19 40/39/19 39/40/19
f 39/40/20 40/39/20 42/41/20 41/42/20
f 41/42/21 42/41/21 44/43/21 43/44/21
f 43/44/22 44/43/22 46/45/22 45/46/22
f 45/46/23 46/45/23 48/47/23 47/48/23
f 47/48/24 48/47/24 50/49/24 49/50/24
f 49/50/25 50/49/25 52/51/25 51/52/25
f 51/52/26 52/51/26 54/53/26 53/54/26
f 53/54/27 54/53/27 56/55/27 55/56/27
f 55/56/28 56/55/28 58/57/28 57/58/28
f 57/58/29 58/57/29 60/59/29 59/60/29
f 59/60/30 60/59/30 62/61/30 61/62/30
f 4/63/31 2/64/31 64/65/31 62/66/31 60/67/31 58/68/31 56/69/31 54/70/31 52/71/31 50/72/31 48/73/31 46/74/31 44/75/31 42/76/31 40/77/31 38/78/31 36/79/31 34/80/31 32/81/31 30/82/31 28/83/31 26/84/31 24/85/31 22/86/31 20/87/31 18/88/31 16/89/31 14/90/31 12/91/31 10/92/31 8/93/31 6/94/31
f 61/62/32 62/61/32 64/95/32 63/96/32
f 63/96/33 64/95/33 2/97/33 1/98/33
f 5/6/34 7/8/34 68/99/34 67/100/34
f 65/101/35 66/102/35 67/103/35 68/104/35 69/105/35 70/106/35 71/107/35 72/108/35 73/109/35 74/110/35 75/111/35 76/112/35 77/113/35 78/114/35 79/115/35 80/116/35 81/117/35 82/118/35 83/119/35 84/120/35 85/121/35 86/122/35 87/123/35 88/124/35 89/125/35 90/126/35 91/127/35 92/128/35 93/129/35 94/130/35 95/131/35 96/132/35
f 23/24/36 25/26/36 77/133/36 76/134/36
f 41/42/37 43/44/37 86/135/37 85/136/37
f 59/60/38 61/62/38 95/137/38 94/138/38
f 15/16/39 17/18/39 73/139/39 72/140/39
f 33/34/40 35/36/40 82/141/40 81/142/40
f 51/52/41 53/54/41 91/143/41 90/144/41
f 7/8/42 9/10/42 69/145/42 68/99/42
f 25/26/43 27/28/43 78/146/43 77/133/43
f 43/44/44 45/46/44 87/147/44 86/135/44
f 61/62/45 63/96/45 96/148/45 95/137/45
f 17/18/46 19/20/46 74/149/46 73/139/46
f 35/36/47 37/38/47 83/150/47 82/141/47
f 53/54/48 55/56/48 92/151/48 91/143/48
f 9/10/49 11/12/49 70/152/49 69/145/49
f 27/28/50 29/30/50 79/153/50 78/146/50
f 45/46/51 47/48/51 88/154/51 87/147/51
f 1/1/52 3/4/52 66/155/52 65/156/52
f 63/96/53 1/98/53 65/157/53 96/148/53
f 19/20/54 21/22/54 75/158/54 74/149/54
f 37/38/55 39/40/55 84/159/55 83/150/55
f 55/56/56 57/58/56 93/160/56 92/151/56
f 11/12/57 13/14/57 71/161/57 70/152/57
f 29/30/58 31/32/58 80/162/58 79/153/58
f 47/48/59 49/50/59 89/163/59 88/154/59
f 3/4/60 5/6/60 67/100/60 66/155/60
f 21/22/61 23/24/61 76/134/61 75/158/61
f 39/40/62 41/42/62 85/136/62 84/159/62
f 57/58/63 59/60/63 94/138/63 93/160/63
f 13/14/64 15/16/64 72/140/64 71/161/64
f 31/32/65 33/34/65 81/142/65 80/162/65
f 49/50/66 51/52/66 90/144/66 89/163/66
