# Blender v3.0.0 OBJ File: ''
# www.blender.org
mtllib box_with_edges.mtl
o Cube_Cube.001
v -0.952348 -0.004919 0.575862
v -0.952348 0.042734 0.623515
v -1.000000 0.042734 0.575862
v -0.952348 1.094930 0.623515
v -0.952348 1.142582 0.575862
v -1.000000 1.094930 0.575862
v -0.952348 -0.004919 -0.575862
v -1.000000 0.042734 -0.575862
v -0.952348 0.042734 -0.623515
v -0.952348 1.142582 -0.575862
v -0.952348 1.094930 -0.623515
v -1.000000 1.094930 -0.575862
v 0.952348 -0.004919 0.575862
v 1.000000 0.042734 0.575862
v 0.952348 0.042734 0.623515
v 0.952348 1.142582 0.575862
v 0.952348 1.094930 0.623515
v 1.000000 1.094930 0.575862
v 0.952348 -0.004919 -0.575862
v 0.952348 0.042734 -0.623515
v 1.000000 0.042734 -0.575862
v 0.952348 1.142582 -0.575862
v 1.000000 1.094930 -0.575862
v 0.952348 1.094930 -0.623515
v -1.046001 0.018532 0.602352
v -0.996157 -0.031312 0.602352
v -0.996157 0.018532 0.652197
v -1.046001 1.119131 0.602352
v -0.996157 1.119131 0.652197
v -0.996157 1.168975 0.602352
v -0.996157 0.018532 -0.652197
v -0.996157 -0.031312 -0.602352
v -1.046001 0.018532 -0.602352
v -1.046001 1.119131 -0.602352
v -0.996157 1.168975 -0.602352
v -0.996157 1.119131 -0.652197
v 0.996157 0.018532 0.652197
v 0.996157 -0.031312 0.602352
v 1.046001 0.018532 0.602352
v 1.046001 1.119131 0.602352
v 0.996157 1.168975 0.602352
v 0.996157 1.119131 0.652197
v 1.046001 0.018532 -0.602352
v 0.996157 -0.031312 -0.602352
v 0.996157 0.018532 -0.652197
v 0.996157 1.119131 -0.652197
v 0.996157 1.168975 -0.602352
v 1.046001 1.119131 -0.602352
vt 0.385382 0.755957
vt 0.614618 0.755957
vt 0.614618 0.994043
vt 0.385382 0.994044
vt 0.385382 0.509553
vt 0.614618 0.509553
vt 0.614618 0.740447
vt 0.385382 0.740447
vt 0.630957 0.509553
vt 0.869043 0.509553
vt 0.869043 0.740447
vt 0.630957 0.740447
vt 0.385382 0.009553
vt 0.614618 0.009553
vt 0.614618 0.240447
vt 0.385382 0.240447
vt 0.385382 0.255957
vt 0.614618 0.255957
vt 0.614618 0.494043
vt 0.385382 0.494043
vt 0.614618 0.740447
vt 0.385382 0.740447
vt 0.869043 0.509553
vt 0.869043 0.740447
vt 0.614618 0.255957
vt 0.614618 0.494043
vt 0.385382 0.755957
vt 0.614618 0.755957
vt 0.385382 0.009553
vt 0.614618 0.009553
vt 0.630957 0.509553
vt 0.614618 0.509553
vt 0.614618 0.994043
vt 0.385382 0.994044
vt 0.385382 0.494043
vt 0.385382 0.255957
vt 0.630957 0.740447
vt 0.385382 0.240447
vt 0.369043 0.509553
vt 0.130957 0.509553
vt 0.130957 0.509553
vt 0.369043 0.509553
vt 0.385382 0.509553
vt 0.130957 0.740447
vt 0.130957 0.740447
vt 0.614618 0.240447
vt 0.369043 0.740447
vt 0.369043 0.740447
vt 0.130957 0.750000
vt 0.125000 0.740447
vt 0.625000 0.994043
vt 0.614618 1.000000
vt 0.125000 0.509553
vt 0.130957 0.500000
vt 0.625000 0.255957
vt 0.625000 0.255957
vt 0.614618 0.250000
vt 0.375000 0.740447
vt 0.369043 0.750000
vt 0.625000 0.755957
vt 0.625000 0.755957
vt 0.614618 0.750000
vt 0.369043 0.500000
vt 0.375000 0.509553
vt 0.625000 0.509553
vt 0.625000 0.509553
vt 0.614618 0.500000
vt 0.385382 0.000000
vt 0.614618 0.000000
vt 0.625000 0.009553
vt 0.625000 0.240447
vt 0.625000 0.494043
vn 0.0000 0.0000 1.0000
vn 1.0000 0.0000 0.0000
vn 0.0000 1.0000 0.0000
vn -1.0000 0.0000 0.0000
vn 0.0000 0.0000 -1.0000
vn 0.4990 0.0000 -0.8666
vn 0.5160 0.8566 0.0000
vn 0.0000 -0.7643 -0.6449
vn -0.5478 0.0000 0.8366
vn -0.4990 0.0000 -0.8666
vn 0.0000 0.7084 0.7058
vn 0.4656 -0.8850 0.0000
vn 0.5478 0.0000 0.8366
vn 0.0000 0.7643 -0.6449
vn -0.5160 0.8566 0.0000
vn -0.4656 0.8850 0.0000
vn 0.0000 -0.7643 0.6449
vn 0.0000 -0.7084 0.7058
vn 0.4656 0.8850 0.0000
vn 0.5160 -0.8566 0.0000
vn 0.0000 0.7084 -0.7058
vn -0.4990 0.0000 0.8666
vn -0.5160 -0.8566 0.0000
vn 0.0000 0.7643 0.6449
vn 0.5478 0.0000 -0.8366
vn 0.0000 -1.0000 0.0000
vn -0.5774 -0.5773 0.5774
vn -0.5774 0.5773 0.5773
vn -0.5774 -0.5773 -0.5774
vn -0.5774 0.5773 -0.5773
vn 0.5773 -0.5774 0.5774
vn 0.5773 0.5774 0.5773
vn 0.5773 -0.5774 -0.5774
vn 0.5773 0.5774 -0.5773
vn -0.7071 -0.7071 0.0000
vn -0.7071 0.0000 0.7071
vn -0.7071 0.7071 0.0000
vn -0.7071 0.0000 -0.7071
vn 0.0000 -0.7071 -0.7071
vn 0.0000 0.7071 -0.7071
vn 0.7071 0.0000 -0.7071
vn 0.7071 -0.7071 0.0000
vn 0.7071 0.7071 0.0000
vn 0.7071 0.0000 0.7071
vn 0.0000 -0.7071 0.7071
vn 0.0000 0.7071 0.7071
vn 0.4990 0.0000 0.8666
vn -0.4656 -0.8850 0.0000
vn 0.0000 -0.7084 -0.7058
vn -0.5478 0.0000 -0.8366
usemtl None
s off
f 15/1/1 17/2/1 4/3/1 2/4/1
f 21/5/2 23/6/2 18/7/2 14/8/2
f 22/9/3 10/10/3 5/11/3 16/12/3
f 3/13/4 6/14/4 12/15/4 8/16/4
f 9/17/5 11/18/5 24/19/5 20/20/5
f 14/8/6 18/7/6 40/21/6 39/22/6
f 5/11/7 10/10/7 35/23/7 30/24/7
f 24/19/8 11/18/8 36/25/8 46/26/8
f 17/2/9 15/1/9 37/27/9 42/28/9
f 6/14/10 3/13/10 25/29/10 28/30/10
f 10/10/11 22/9/11 47/31/11 35/23/11
f 18/7/12 23/6/12 48/32/12 40/21/12
f 2/4/13 4/3/13 29/33/13 27/34/13
f 9/17/14 20/20/14 45/35/14 31/36/14
f 22/9/15 16/12/15 41/37/15 47/31/15
f 3/13/16 8/16/16 33/38/16 25/29/16
f 4/3/17 17/2/17 42/28/17 29/33/17
f 19/39/18 7/40/18 32/41/18 44/42/18
f 21/5/19 14/8/19 39/22/19 43/43/19
f 7/40/20 1/44/20 26/45/20 32/41/20
f 16/12/21 5/11/21 30/24/21 41/37/21
f 8/16/22 12/15/22 34/46/22 33/38/22
f 13/47/23 19/39/23 44/42/23 38/48/23
f 15/1/24 2/4/24 27/34/24 37/27/24
f 11/18/25 9/17/25 31/36/25 36/25/25
f 7/40/26 19/39/26 13/47/26 1/44/26
f 26/45/27 27/49/27 25/50/27
f 29/33/28 30/51/28 28/52/28
f 32/41/29 33/53/29 31/54/29
f 35/55/30 36/56/30 34/57/30
f 38/48/31 39/58/31 37/59/31
f 41/60/32 42/61/32 40/62/32
f 44/42/33 45/63/33 43/64/33
f 47/65/34 48/66/34 46/67/34
f 32/41/35 26/45/35 25/50/35 33/53/35
f 27/68/36 29/69/36 28/30/36 25/29/36
f 30/70/37 35/71/37 34/46/37 28/30/37
f 36/25/38 31/36/38 33/38/38 34/46/38
f 44/42/39 32/41/39 31/54/39 45/63/39
f 35/55/40 47/72/40 46/26/40 36/25/40
f 48/32/41 43/43/41 45/35/41 46/26/41
f 38/48/42 44/42/42 43/43/42 39/22/42
f 47/31/43 41/37/43 40/21/43 48/32/43
f 42/28/44 37/27/44 39/22/44 40/21/44
f 26/45/45 38/48/45 37/59/45 27/49/45
f 41/60/46 30/51/46 29/33/46 42/28/46
f 23/6/47 21/5/47 43/43/47 48/32/47
f 12/15/48 6/14/48 28/30/48 34/46/48
f 1/44/49 13/47/49 38/48/49 26/45/49
f 20/20/50 24/19/50 46/26/50 45/35/50
