# Blender v3.0.0 OBJ File: ''
# www.blender.org
mtllib ivy_rock.mtl
o Sphere
v -0.087289 0.631443 -0.356370
v 0.088223 -0.160170 -0.657023
v 0.101087 -0.245143 0.029893
v -0.019722 0.644586 -0.256400
v 0.123636 0.318187 -0.545752
v 0.295903 0.043436 -0.718509
v 0.431540 -0.127179 -0.628002
v 0.141861 0.615885 -0.155099
v 0.407041 0.336612 -0.395689
v 0.549332 0.007333 -0.527985
v 0.704155 -0.258056 -0.396994
v 0.214028 0.619491 -0.077253
v 0.512377 0.400813 -0.159093
v 0.658064 0.039833 -0.231763
v 0.851108 -0.197316 -0.133060
v 0.287374 0.658223 0.047019
v 0.499252 0.491650 0.167792
v 0.731254 0.176158 0.190379
v 0.960651 -0.121409 0.249195
v 0.339552 0.691075 0.126443
v 0.514858 0.432382 0.379393
v 0.702296 0.150873 0.501840
v 0.822251 -0.113541 0.584877
v 0.269630 0.725390 0.213132
v 0.415828 0.432384 0.567403
v 0.538255 0.104250 0.794245
v 0.640946 -0.052888 0.816671
v -0.072579 0.710192 0.024220
v 0.076348 0.725751 0.370745
v 0.182253 0.503472 0.695779
v 0.145916 0.225972 0.916661
v 0.132606 -0.000036 0.937674
v -0.118097 0.677492 0.436146
v -0.183051 0.461144 0.662909
v -0.375469 0.188685 0.748553
v -0.406113 -0.093224 0.810343
v -0.228586 0.557137 0.277969
v -0.359746 0.341859 0.480850
v -0.640664 0.133233 0.465909
v -0.716543 -0.119266 0.490960
v -0.402765 0.519802 0.133091
v -0.561611 0.266859 0.246022
v -0.734692 0.114883 0.192561
v -0.860562 -0.085120 0.254618
v -0.526263 0.542074 -0.057576
v -0.751265 0.400806 -0.049966
v -0.777862 0.142667 -0.154111
v -0.741324 -0.127548 -0.014177
v -0.448547 0.581109 -0.192226
v -0.708239 0.381615 -0.308946
v -0.659546 0.090741 -0.463808
v -0.529607 -0.123318 -0.342061
v -0.222477 0.574417 -0.412394
v -0.379827 0.381287 -0.591945
v -0.389343 0.046319 -0.724580
v -0.302647 -0.139896 -0.652762
v -0.095760 0.367976 -0.603520
v -0.016156 -0.007440 -0.756592
vt 0.714286 0.500000
vt 0.714286 0.625000
vt 0.642857 0.625000
vt 0.642857 0.500000
vt 0.714286 0.750000
vt 0.714286 0.875000
vt 0.642857 0.875000
vt 0.642857 0.750000
vt 0.714286 0.375000
vt 0.678571 1.000000
vt 0.642857 0.375000
vt 0.571429 0.500000
vt 0.571429 0.750000
vt 0.571429 0.625000
vt 0.607143 1.000000
vt 0.571429 0.875000
vt 0.571429 0.375000
vt 0.500000 0.500000
vt 0.500000 0.750000
vt 0.500000 0.625000
vt 0.535714 1.000000
vt 0.500000 0.875000
vt 0.428571 0.625000
vt 0.428571 0.500000
vt 0.428571 0.875000
vt 0.428571 0.750000
vt 0.500000 0.375000
vt 0.464286 1.000000
vt 0.357143 0.625000
vt 0.357143 0.500000
vt 0.357143 0.875000
vt 0.357143 0.750000
vt 0.428571 0.375000
vt 0.392857 1.000000
vt 0.357143 0.375000
vt 0.285714 0.500000
vt 0.285714 0.750000
vt 0.285714 0.625000
vt 0.321429 1.000000
vt 0.285714 0.875000
vt 0.214286 0.750000
vt 0.214286 0.625000
vt 0.250000 1.000000
vt 0.214286 0.875000
vt 0.214286 0.500000
vt 0.285714 0.375000
vt 0.142857 0.625000
vt 0.142857 0.500000
vt 0.142857 0.875000
vt 0.142857 0.750000
vt 0.214286 0.375000
vt 0.178571 1.000000
vt 0.071429 0.875000
vt 0.071429 0.750000
vt 0.142857 0.375000
vt 0.071429 0.500000
vt 0.071429 0.625000
vt 0.107143 1.000000
vt 0.071429 0.375000
vt 0.000000 0.500000
vt 0.000000 0.750000
vt 0.000000 0.625000
vt 0.035714 1.000000
vt 0.000000 0.875000
vt 1.000000 0.875000
vt 0.964286 1.000000
vt 0.928571 0.875000
vt 1.000000 0.500000
vt 1.000000 0.625000
vt 0.928571 0.625000
vt 0.928571 0.500000
vt 1.000000 0.750000
vt 0.928571 0.750000
vt 1.000000 0.375000
vt 0.857143 0.625000
vt 0.857143 0.500000
vt 0.857143 0.875000
vt 0.857143 0.750000
vt 0.928571 0.375000
vt 0.892857 1.000000
vt 0.857143 0.375000
vt 0.785714 0.500000
vt 0.785714 0.750000
vt 0.785714 0.625000
vt 0.821429 1.000000
vt 0.785714 0.875000
vt 0.785714 0.375000
vt 0.750000 1.000000
vn 0.1454 -0.4190 -0.8963
vn 0.4247 0.6604 -0.6193
vn 0.1053 -0.9867 -0.1240
vn 0.1538 0.4897 -0.8582
vn 0.1151 0.9719 -0.2055
vn -0.2156 -0.9366 -0.2762
vn 0.4506 0.5782 -0.6802
vn 0.2744 0.9465 -0.1696
vn 0.6300 0.0254 -0.7762
vn 0.3442 0.7390 -0.5792
vn 0.0995 -0.9804 0.1702
vn 0.7965 0.4517 -0.4020
vn 0.2138 0.9464 -0.2421
vn 0.8208 0.3689 -0.4361
vn 0.4512 0.7852 -0.4240
vn 0.7872 0.5282 -0.3182
vn 0.5900 0.7517 -0.2946
vn 0.0987 -0.9811 0.1665
vn 0.8457 0.4881 -0.2159
vn 0.1557 0.9132 -0.3765
vn 0.8019 0.5546 0.2223
vn 0.7869 0.6035 -0.1285
vn 0.1235 -0.9896 0.0741
vn 0.7993 0.5897 0.1157
vn 0.1553 0.8727 -0.4630
vn -0.0114 -0.9695 0.2448
vn 0.6809 0.5926 0.4304
vn 0.1147 0.9519 -0.2843
vn 0.7286 0.5015 0.4666
vn 0.6384 0.7070 0.3043
vn 0.4508 0.5712 0.6860
vn -0.0257 0.9991 -0.0338
vn 0.2882 0.1740 0.9416
vn 0.4272 0.7896 0.4404
vn -0.0380 -0.9644 0.2617
vn -0.2845 0.1782 0.9420
vn -0.0894 0.7764 0.6238
vn 0.1058 -0.9609 0.2558
vn -0.2316 0.5453 0.8056
vn -0.2239 0.9732 0.0525
vn -0.7729 0.5882 0.2381
vn -0.0688 -0.9867 0.1473
vn -0.6406 0.6821 0.3527
vn -0.7202 0.6934 -0.0245
vn -0.7167 0.2487 0.6516
vn -0.1725 -0.9843 -0.0371
vn -0.6264 0.7455 0.2278
vn -0.4121 0.8698 0.2713
vn -0.8099 0.4365 0.3918
vn -0.6196 0.6650 0.4169
vn -0.3802 0.8575 0.3465
vn -0.9832 0.1332 -0.1247
vn -0.5124 0.6651 0.5432
vn -0.1424 -0.9855 0.0924
vn -0.8784 0.2785 0.3883
vn -0.7949 -0.4763 -0.3758
vn -0.5511 0.8247 -0.1275
vn -0.1325 -0.9863 -0.0983
vn -0.9545 0.0949 -0.2827
vn -0.3569 0.9319 0.0642
vn -0.1548 -0.9861 -0.0605
vn -0.6313 0.2907 -0.7189
vn -0.1953 0.9535 -0.2295
vn -0.6411 -0.5864 -0.4951
vn -0.4104 0.7855 -0.4632
vn -0.0527 -0.9912 -0.1216
vn -0.0237 0.3710 -0.9283
vn -0.3179 0.9308 -0.1803
vn -0.0886 -0.4888 -0.8679
vn 0.0065 0.6815 -0.7318
usemtl None
s off
f 2/1/1 58/2/1 6/3/1 7/4/1
f 57/5/2 1/6/2 4/7/2 5/8/2
f 3/9/3 2/1/3 7/4/3
f 58/2/4 57/5/4 5/8/4 6/3/4
f 1/6/5 28/10/5 4/7/5
f 3/11/6 7/4/6 11/12/6
f 6/3/7 5/8/7 9/13/7 10/14/7
f 4/7/8 28/15/8 8/16/8
f 7/4/9 6/3/9 10/14/9 11/12/9
f 5/8/10 4/7/10 8/16/10 9/13/10
f 3/17/11 11/12/11 15/18/11
f 10/14/12 9/13/12 13/19/12 14/20/12
f 8/16/13 28/21/13 12/22/13
f 11/12/14 10/14/14 14/20/14 15/18/14
f 9/13/15 8/16/15 12/22/15 13/19/15
f 15/18/16 14/20/16 18/23/16 19/24/16
f 13/19/17 12/22/17 16/25/17 17/26/17
f 3/27/18 15/18/18 19/24/18
f 14/20/19 13/19/19 17/26/19 18/23/19
f 12/22/20 28/28/20 16/25/20
f 19/24/21 18/23/21 22/29/21 23/30/21
f 17/26/22 16/25/22 20/31/22 21/32/22
f 3/33/23 19/24/23 23/30/23
f 18/23/24 17/26/24 21/32/24 22/29/24
f 16/25/25 28/34/25 20/31/25
f 3/35/26 23/30/26 27/36/26
f 22/29/27 21/32/27 25/37/27 26/38/27
f 20/31/28 28/39/28 24/40/28
f 23/30/29 22/29/29 26/38/29 27/36/29
f 21/32/30 20/31/30 24/40/30 25/37/30
f 26/38/31 25/37/31 30/41/31 31/42/31
f 24/40/32 28/43/32 29/44/32
f 27/36/33 26/38/33 31/42/33 32/45/33
f 25/37/34 24/40/34 29/44/34 30/41/34
f 3/46/35 27/36/35 32/45/35
f 32/45/36 31/42/36 35/47/36 36/48/36
f 30/41/37 29/44/37 33/49/37 34/50/37
f 3/51/38 32/45/38 36/48/38
f 31/42/39 30/41/39 34/50/39 35/47/39
f 29/44/40 28/52/40 33/49/40
f 34/50/41 33/49/41 37/53/41 38/54/41
f 3/55/42 36/48/42 40/56/42
f 35/47/43 34/50/43 38/54/43 39/57/43
f 33/49/44 28/58/44 37/53/44
f 36/48/45 35/47/45 39/57/45 40/56/45
f 3/59/46 40/56/46 44/60/46
f 39/57/47 38/54/47 42/61/47 43/62/47
f 37/53/48 28/63/48 41/64/48
f 40/56/49 39/57/49 43/62/49 44/60/49
f 38/54/50 37/53/50 41/64/50 42/61/50
f 41/65/51 28/66/51 45/67/51
f 44/68/52 43/69/52 47/70/52 48/71/52
f 42/72/53 41/65/53 45/67/53 46/73/53
f 3/74/54 44/68/54 48/71/54
f 43/69/55 42/72/55 46/73/55 47/70/55
f 48/71/56 47/70/56 51/75/56 52/76/56
f 46/73/57 45/67/57 49/77/57 50/78/57
f 3/79/58 48/71/58 52/76/58
f 47/70/59 46/73/59 50/78/59 51/75/59
f 45/67/60 28/80/60 49/77/60
f 3/81/61 52/76/61 56/82/61
f 51/75/62 50/78/62 54/83/62 55/84/62
f 49/77/63 28/85/63 53/86/63
f 52/76/64 51/75/64 55/84/64 56/82/64
f 50/78/65 49/77/65 53/86/65 54/83/65
f 3/87/66 56/82/66 2/1/66
f 55/84/67 54/83/67 57/5/67 58/2/67
f 53/86/68 28/88/68 1/6/68
f 56/82/69 55/84/69 58/2/69 2/1/69
f 54/83/70 53/86/70 1/6/70 57/5/70
